<svg xmlns="http://www.w3.org/2000/svg" viewBox="0 0 457.22 279.65"><defs><style>.cls-1{fill:#fff;}.cls-2{fill:#3fa9f5;}.cls-3{fill:#d4f5ff;}</style></defs><title>Asset 1</title><g id="Layer_2" data-name="Layer 2"><g id="Layer_1-2" data-name="Layer 1"><rect class="cls-1" x="23.18" y="10.77" width="4" height="239.29"/><path class="cls-2" d="M107.25,192.32c1.86-19.72,4.56-39.55,5.52-59.32,1.13-23.45,32.72-30.71,51-33.27,32.26-4.52,66.51-2.67,96-18.65a31.57,31.57,0,0,1,6.76-2.86,298.61,298.61,0,0,1,30-7.13C306,69.48,315.19,70,324.65,69.3a179.89,179.89,0,0,0,19-2.65c20-3.58,39.8-8.35,59.42-13.55,13.42-3.55,28.27-6.52,40.77-12.81,2.07-1,.25-4.15-1.82-3.11-11.25,5.65-24.62,8.34-36.7,11.59C387.31,53.63,369.1,58,350.74,61.67c-7.53,1.49-15.11,2.91-22.75,3.73-7.33.78-14.65.08-22,.8C294.48,67.32,283.15,70,272,73c-3.91,1.06-7.94,1.87-11.58,3.68-7.51,3.72-14.56,7.25-22.71,9.53-22.24,6.22-45.21,6.81-68,9.22-20.22,2.14-57.75,9-60.41,35.28-2.08,20.49-3.68,41.1-5.62,61.62-.22,2.31,3.38,2.29,3.6,0Z"/><rect class="cls-1" x="25.18" y="246.82" width="417.8" height="4"/><polygon class="cls-1" points="18.64 14.85 25.28 0 31.92 14.85 18.64 14.85"/><polygon class="cls-1" points="442.98 241.9 457.22 248.82 442.98 255.74 442.98 241.9"/><path class="cls-1" d="M1.78,66.15v2.59H8.57v2H1.78v2.6H0V66.15Z"/><path class="cls-1" d="M8.57,65.19H0V61.35A2.47,2.47,0,0,1,.3,60.24,3,3,0,0,1,1,59.35a3.12,3.12,0,0,1,.92-.58,2.76,2.76,0,0,1,1-.21,3,3,0,0,1,.76.1,2.93,2.93,0,0,1,.69.28,2.61,2.61,0,0,1,1,1l3.17-1.87V60.3L5.82,61.93v1.28H8.57Zm-4.46-2v-1.8a.74.74,0,0,0-.33-.6,1.36,1.36,0,0,0-.85-.25,1.19,1.19,0,0,0-.84.29.85.85,0,0,0-.31.62v1.74Z"/><path class="cls-1" d="M0,55V53.19l8.52-3.11v2l-1.91.66V55.4l1.91.65v2ZM5.3,53.08l-3,1,3,1Z"/><path class="cls-1" d="M8.57,49.24H0V43.45H1.78v3.82H3.61V44.13h1.6v3.14H8.57Z"/><path class="cls-1" d="M8.57,42.41H0V36.63H1.78v3.82H3.61V37.3h1.6v3.14H8.57Z"/><path class="cls-1" d="M8.57,35.58H0v-2H8.57Z"/><path class="cls-1" d="M4.24,32.47a4.29,4.29,0,0,1-1.53-.29,4.16,4.16,0,0,1-1.36-.84A4.27,4.27,0,0,1,.37,30,4.19,4.19,0,0,1,0,28.2a4,4,0,0,1,.52-2.08,3.34,3.34,0,0,1,1.34-1.31l1.06,1.51a1.78,1.78,0,0,0-.56.37,2,2,0,0,0-.55,1,2.84,2.84,0,0,0-.05.54,2,2,0,0,0,.23,1,2.15,2.15,0,0,0,.59.7,2.44,2.44,0,0,0,.82.41,3.31,3.31,0,0,0,.92.13,3,3,0,0,0,1-.16,2.6,2.6,0,0,0,.83-.45,2.18,2.18,0,0,0,.57-.71,2,2,0,0,0,.21-.93,2.4,2.4,0,0,0-.07-.55,2.2,2.2,0,0,0-.2-.54,1.92,1.92,0,0,0-.36-.47,1.69,1.69,0,0,0-.55-.35l.95-1.61a2.51,2.51,0,0,1,.84.57,3.52,3.52,0,0,1,.62.87,4.79,4.79,0,0,1,.52,2.12A3.82,3.82,0,0,1,8.26,30a4.29,4.29,0,0,1-1,1.33,4.58,4.58,0,0,1-1.42.86A4.43,4.43,0,0,1,4.24,32.47Z"/><path class="cls-1" d="M411.25,264.18h-2.59V271h-2v-6.79h-2.6v-1.73h7.16Z"/><path class="cls-1" d="M412.21,271v-8.52h2V271Z"/><path class="cls-1" d="M422.53,271v-5.1l-1.85,3.71h-1.06l-1.85-3.71V271h-2v-8.52H418l2.21,4.45,2.22-4.45h2.12V271Z"/><path class="cls-1" d="M432.12,269.25V271h-6v-8.52H432v1.73H428.1v1.66h3.36v1.6H428.1v1.81Z"/><path class="cls-3" d="M28.6,201.56c11.91,1.11,25.08-.2,36.09-5,4.67-2,8.79-4.85,13.82-6.07a31.4,31.4,0,0,1,15.58.23c6.68,1.79,11.57,5.85,18.8,5.23,8.14-.69,14-4.95,21.32-7.76,6.24-2.4,13.34-3.14,19.92-3.88,7.18-.81,14.41-1.31,21.64-1.49,5.16-.13,10.46.62,15.58.2,13.3-1.09,26.58-6.76,39-11.21,5.68-2,10.92-4.06,16.91-4.68,20.6-2.13,41.29-3.46,61.9-5.55q67.45-6.83,134.28-18.49c2.28-.4,1.31-3.87-1-3.47Q381.22,150.29,319.34,157c-22.76,2.43-45.56,4.17-68.35,6.25-18,1.65-34.2,10.61-51.76,14.81-11.38,2.73-23.57,1-35.22,1.83-12.67.92-25.48,2-36.82,8-4.92,2.6-10.73,4.67-16.36,4.67-4.19,0-7.29-2.06-11-3.58A35.82,35.82,0,0,0,74.37,188c-5.24,1.84-9.78,5.07-15.07,6.81a68.37,68.37,0,0,1-15,3A85.06,85.06,0,0,1,28.6,198c-2.31-.21-2.29,3.39,0,3.6Z"/><path class="cls-3" d="M36.92,277.48H24.68V265.24H36.92Zm-11.23-1H35.92V266.24H25.68Z"/><path class="cls-1" d="M46.53,268.45l2.35,4.27,2.38-4.27h1.48l-3.18,5.47v3H48.21V273.9l-3.16-5.45Z"/><path class="cls-1" d="M55.33,277.09a3.26,3.26,0,0,1-1.34-.26,3.07,3.07,0,0,1-1.66-1.75,3.49,3.49,0,0,1,0-2.48,3.08,3.08,0,0,1,.65-1,3.2,3.2,0,0,1,1-.71,3.28,3.28,0,0,1,3.67.71,3.08,3.08,0,0,1,.65,1,3.5,3.5,0,0,1,0,2.48,3.07,3.07,0,0,1-.65,1,3.2,3.2,0,0,1-1,.71A3.24,3.24,0,0,1,55.33,277.09Zm-1.87-3.24a2.38,2.38,0,0,0,.14.84,2.1,2.1,0,0,0,.4.67,1.85,1.85,0,0,0,.59.44,1.76,1.76,0,0,0,1.48,0,1.81,1.81,0,0,0,.59-.45,2.15,2.15,0,0,0,.4-.67,2.5,2.5,0,0,0,0-1.67,2.14,2.14,0,0,0-.4-.68,1.82,1.82,0,0,0-.59-.45,1.7,1.7,0,0,0-.74-.16,1.63,1.63,0,0,0-.73.17,1.88,1.88,0,0,0-.59.46,2.25,2.25,0,0,0-.4.68A2.31,2.31,0,0,0,53.45,273.85Z"/><path class="cls-1" d="M61.66,277.09a1.78,1.78,0,0,1-1.49-.64,3.06,3.06,0,0,1-.5-1.91V270.7H61v3.58q0,1.69,1.2,1.69a1.85,1.85,0,0,0,1.07-.35,2.23,2.23,0,0,0,.78-1V270.7h1.32v4.72a.52.52,0,0,0,.08.32.38.38,0,0,0,.28.11V277l-.34,0h-.25a1,1,0,0,1-.61-.2.65.65,0,0,1-.26-.51l0-.62a2.81,2.81,0,0,1-1.09,1A3.12,3.12,0,0,1,61.66,277.09Z"/><path class="cls-1" d="M70.57,271.84a3,3,0,0,0-1.36.35,1.86,1.86,0,0,0-.85.94V277H67V270.7h1.22v1.4a2.88,2.88,0,0,1,.85-1,2.05,2.05,0,0,1,1.12-.43h.34Z"/><path class="cls-1" d="M81.07,274.78a2,2,0,0,1-.21.92,2.11,2.11,0,0,1-.56.69,2.54,2.54,0,0,1-.83.43,3.4,3.4,0,0,1-1,.15H74.37v-8.52h4.39a1.69,1.69,0,0,1,.8.19,2,2,0,0,1,.61.5,2.28,2.28,0,0,1,.39.7,2.34,2.34,0,0,1,.14.79,2.29,2.29,0,0,1-.32,1.17,1.94,1.94,0,0,1-.91.81,2.17,2.17,0,0,1,1.16.79A2.25,2.25,0,0,1,81.07,274.78Zm-5.35-5.16v2.51h2.47a1.1,1.1,0,0,0,.46-.1,1.28,1.28,0,0,0,.37-.26,1.15,1.15,0,0,0,.25-.39,1.37,1.37,0,0,0,.09-.5A1.32,1.32,0,0,0,79,270a1,1,0,0,0-.79-.35Zm4,4.91a1.41,1.41,0,0,0-.09-.5,1.44,1.44,0,0,0-.24-.42,1.14,1.14,0,0,0-.37-.29,1,1,0,0,0-.47-.11H75.71v2.6h2.72a1.18,1.18,0,0,0,.49-.1,1.25,1.25,0,0,0,.66-.68A1.29,1.29,0,0,0,79.69,274.53Z"/><path class="cls-1" d="M82.31,268.22h1.32v6.95a.78.78,0,0,0,.18.55.65.65,0,0,0,.5.2,1.17,1.17,0,0,0,.31,0l.33-.11.19,1a3.08,3.08,0,0,1-.68.21,3.72,3.72,0,0,1-.71.08,1.45,1.45,0,0,1-1.06-.37,1.42,1.42,0,0,1-.38-1.06Z"/><path class="cls-1" d="M88.73,277.09a3.26,3.26,0,0,1-1.34-.26,3.07,3.07,0,0,1-1.66-1.75,3.49,3.49,0,0,1,0-2.48,3.08,3.08,0,0,1,.65-1,3.2,3.2,0,0,1,1-.71,3.28,3.28,0,0,1,3.67.71,3.08,3.08,0,0,1,.65,1,3.5,3.5,0,0,1,0,2.48,3.07,3.07,0,0,1-.65,1,3.2,3.2,0,0,1-1,.71A3.24,3.24,0,0,1,88.73,277.09Zm-1.87-3.24a2.38,2.38,0,0,0,.14.84,2.1,2.1,0,0,0,.4.67,1.85,1.85,0,0,0,.59.44,1.76,1.76,0,0,0,1.48,0,1.81,1.81,0,0,0,.59-.45,2.15,2.15,0,0,0,.4-.67,2.5,2.5,0,0,0,0-1.67,2.14,2.14,0,0,0-.4-.68,1.82,1.82,0,0,0-.59-.45,1.7,1.7,0,0,0-.74-.16,1.63,1.63,0,0,0-.73.17,1.88,1.88,0,0,0-.59.46,2.25,2.25,0,0,0-.4.68A2.31,2.31,0,0,0,86.86,273.85Z"/><path class="cls-1" d="M95.62,277a2.61,2.61,0,0,1-1.16-.26,2.77,2.77,0,0,1-.91-.7,3.3,3.3,0,0,1-.59-1,3.5,3.5,0,0,1-.21-1.21,3.69,3.69,0,0,1,.22-1.27,3.21,3.21,0,0,1,.6-1,2.87,2.87,0,0,1,.92-.7,2.68,2.68,0,0,1,1.18-.26A2.43,2.43,0,0,1,97,271a3,3,0,0,1,.94.94V270.7H99.1v6.1a2.79,2.79,0,0,1-.25,1.21,2.56,2.56,0,0,1-.7.89,3.15,3.15,0,0,1-1.06.56,4.39,4.39,0,0,1-1.32.19A3.78,3.78,0,0,1,94,279.3a3.27,3.27,0,0,1-1.16-1l.74-.7a2.31,2.31,0,0,0,.93.77,2.86,2.86,0,0,0,1.22.26,2.74,2.74,0,0,0,.77-.11,1.8,1.8,0,0,0,.64-.34,1.64,1.64,0,0,0,.44-.58,2,2,0,0,0,.16-.83v-1a2.29,2.29,0,0,1-.92.89A2.6,2.6,0,0,1,95.62,277Zm.43-1.07a1.65,1.65,0,0,0,.58-.1,2,2,0,0,0,.51-.28,2,2,0,0,0,.4-.4,1.44,1.44,0,0,0,.24-.47v-1.64a2.21,2.21,0,0,0-.75-1,2.13,2.13,0,0,0-.52-.28,1.63,1.63,0,0,0-1.33.08,1.87,1.87,0,0,0-.58.49,2.34,2.34,0,0,0-.37.69,2.43,2.43,0,0,0-.13.79,2.16,2.16,0,0,0,.15.81,2,2,0,0,0,1,1.11A1.79,1.79,0,0,0,96.05,276Z"/><path class="cls-2" d="M137.29,277.58H124.85V265.14h12.43Zm-11.23-1.2h10v-10h-10Z"/><path class="cls-1" d="M146.8,268.45l2.35,4.27,2.38-4.27H153l-3.18,5.47v3h-1.34V273.9l-3.16-5.45Z"/><path class="cls-1" d="M155.6,277.09a3.26,3.26,0,0,1-1.34-.26,3.07,3.07,0,0,1-1.66-1.75,3.49,3.49,0,0,1,0-2.48,3.08,3.08,0,0,1,.65-1,3.2,3.2,0,0,1,1-.71,3.28,3.28,0,0,1,3.67.71,3.08,3.08,0,0,1,.65,1,3.5,3.5,0,0,1,0,2.48,3.07,3.07,0,0,1-.65,1,3.2,3.2,0,0,1-1,.71A3.24,3.24,0,0,1,155.6,277.09Zm-1.87-3.24a2.38,2.38,0,0,0,.14.84,2.1,2.1,0,0,0,.4.67,1.85,1.85,0,0,0,.59.44,1.76,1.76,0,0,0,1.48,0,1.81,1.81,0,0,0,.59-.45,2.15,2.15,0,0,0,.4-.67,2.5,2.5,0,0,0,0-1.67,2.14,2.14,0,0,0-.4-.68,1.82,1.82,0,0,0-.59-.45,1.7,1.7,0,0,0-.74-.16,1.63,1.63,0,0,0-.73.17,1.88,1.88,0,0,0-.59.46,2.25,2.25,0,0,0-.4.68A2.31,2.31,0,0,0,153.73,273.85Z"/><path class="cls-1" d="M161.93,277.09a1.78,1.78,0,0,1-1.49-.64,3.06,3.06,0,0,1-.5-1.91V270.7h1.32v3.58q0,1.69,1.2,1.69a1.85,1.85,0,0,0,1.07-.35,2.23,2.23,0,0,0,.78-1V270.7h1.32v4.72a.52.52,0,0,0,.08.32.38.38,0,0,0,.28.11V277l-.34,0h-.25a1,1,0,0,1-.61-.2.65.65,0,0,1-.26-.51l0-.62a2.81,2.81,0,0,1-1.09,1A3.12,3.12,0,0,1,161.93,277.09Z"/><path class="cls-1" d="M170.84,271.84a3,3,0,0,0-1.36.35,1.86,1.86,0,0,0-.85.94V277h-1.32V270.7h1.22v1.4a2.88,2.88,0,0,1,.85-1,2.05,2.05,0,0,1,1.12-.43h.34Z"/><path class="cls-1" d="M181.34,274.78a2,2,0,0,1-.21.92,2.11,2.11,0,0,1-.56.69,2.54,2.54,0,0,1-.83.43,3.4,3.4,0,0,1-1,.15h-4.07v-8.52H179a1.69,1.69,0,0,1,.8.19,2,2,0,0,1,.61.5,2.28,2.28,0,0,1,.39.7,2.34,2.34,0,0,1,.14.79,2.29,2.29,0,0,1-.32,1.17,1.94,1.94,0,0,1-.91.81,2.17,2.17,0,0,1,1.16.79A2.25,2.25,0,0,1,181.34,274.78ZM176,269.62v2.51h2.47a1.1,1.1,0,0,0,.46-.1,1.28,1.28,0,0,0,.37-.26,1.15,1.15,0,0,0,.25-.39,1.37,1.37,0,0,0,.09-.5,1.32,1.32,0,0,0-.31-.91,1,1,0,0,0-.79-.35Zm4,4.91a1.41,1.41,0,0,0-.09-.5,1.44,1.44,0,0,0-.24-.42,1.14,1.14,0,0,0-.37-.29,1,1,0,0,0-.47-.11H176v2.6h2.72a1.18,1.18,0,0,0,.49-.1,1.25,1.25,0,0,0,.66-.68A1.29,1.29,0,0,0,180,274.53Z"/><path class="cls-1" d="M182.59,268.22h1.32v6.95a.78.78,0,0,0,.18.55.65.65,0,0,0,.5.2,1.17,1.17,0,0,0,.31,0l.33-.11.19,1a3.08,3.08,0,0,1-.68.21,3.72,3.72,0,0,1-.71.08,1.45,1.45,0,0,1-1.06-.37,1.42,1.42,0,0,1-.38-1.06Z"/><path class="cls-1" d="M189,277.09a3.26,3.26,0,0,1-1.34-.26,3.07,3.07,0,0,1-1.66-1.75,3.49,3.49,0,0,1,0-2.48,3.08,3.08,0,0,1,.65-1,3.2,3.2,0,0,1,1-.71,3.28,3.28,0,0,1,3.67.71,3.08,3.08,0,0,1,.65,1,3.5,3.5,0,0,1,0,2.48,3.07,3.07,0,0,1-.65,1,3.2,3.2,0,0,1-1,.71A3.24,3.24,0,0,1,189,277.09Zm-1.87-3.24a2.38,2.38,0,0,0,.14.84,2.1,2.1,0,0,0,.4.67,1.85,1.85,0,0,0,.59.44,1.76,1.76,0,0,0,1.48,0,1.81,1.81,0,0,0,.59-.45,2.15,2.15,0,0,0,.4-.67,2.5,2.5,0,0,0,0-1.67,2.14,2.14,0,0,0-.4-.68,1.82,1.82,0,0,0-.59-.45,1.7,1.7,0,0,0-.74-.16,1.63,1.63,0,0,0-.73.17,1.88,1.88,0,0,0-.59.46,2.25,2.25,0,0,0-.4.68A2.31,2.31,0,0,0,187.13,273.85Z"/><path class="cls-1" d="M195.89,277a2.61,2.61,0,0,1-1.16-.26,2.77,2.77,0,0,1-.91-.7,3.3,3.3,0,0,1-.59-1,3.5,3.5,0,0,1-.21-1.21,3.69,3.69,0,0,1,.22-1.27,3.21,3.21,0,0,1,.6-1,2.87,2.87,0,0,1,.92-.7,2.68,2.68,0,0,1,1.18-.26,2.43,2.43,0,0,1,1.33.36,3,3,0,0,1,.94.94V270.7h1.16v6.1a2.79,2.79,0,0,1-.25,1.21,2.56,2.56,0,0,1-.7.89,3.15,3.15,0,0,1-1.06.56,4.39,4.39,0,0,1-1.32.19,3.78,3.78,0,0,1-1.73-.35,3.27,3.27,0,0,1-1.16-1l.74-.7a2.31,2.31,0,0,0,.93.77,2.86,2.86,0,0,0,1.22.26,2.74,2.74,0,0,0,.77-.11,1.8,1.8,0,0,0,.64-.34,1.64,1.64,0,0,0,.44-.58,2,2,0,0,0,.16-.83v-1a2.29,2.29,0,0,1-.92.89A2.6,2.6,0,0,1,195.89,277Zm.43-1.07a1.65,1.65,0,0,0,.58-.1,2,2,0,0,0,.51-.28,2,2,0,0,0,.4-.4,1.44,1.44,0,0,0,.24-.47v-1.64a2.21,2.21,0,0,0-.75-1,2.13,2.13,0,0,0-.52-.28,1.63,1.63,0,0,0-1.33.08,1.87,1.87,0,0,0-.58.49,2.34,2.34,0,0,0-.37.69,2.43,2.43,0,0,0-.13.79,2.16,2.16,0,0,0,.15.81,2,2,0,0,0,1,1.11A1.79,1.79,0,0,0,196.33,276Z"/><path class="cls-1" d="M211.42,270.7h1.26L210,277h-1.09l-1.16-2.92L206.62,277h-1.09l-2.65-6.28h1.26l2,5,.91-2.33L206,270.71h1.08l.72,2,.71-2h1.08l-1.08,2.66.91,2.33Z"/><path class="cls-1" d="M213.56,269.67v-1.45h1.32v1.45Zm0,7.31V270.7h1.32V277Z"/><path class="cls-1" d="M220,276.65a6.53,6.53,0,0,1-.7.27,2.94,2.94,0,0,1-.95.15,2,2,0,0,1-.59-.08,1.44,1.44,0,0,1-.49-.25,1.13,1.13,0,0,1-.33-.44,1.6,1.6,0,0,1-.12-.65v-3.92H216v-1h.83v-2.06h1.32v2.06h1.37v1h-1.37v3.5a.65.65,0,0,0,.21.49.71.71,0,0,0,.46.15,1.47,1.47,0,0,0,.53-.1l.37-.16Z"/><path class="cls-1" d="M226.49,277h-1.32v-3.52a2.16,2.16,0,0,0-.31-1.28,1,1,0,0,0-.88-.41,1.5,1.5,0,0,0-.55.11,2,2,0,0,0-.52.31,2.33,2.33,0,0,0-.44.47,2,2,0,0,0-.29.59V277h-1.32v-8.76h1.32V272a2.59,2.59,0,0,1,1-1,2.63,2.63,0,0,1,1.35-.36,2,2,0,0,1,1,.21,1.69,1.69,0,0,1,.61.56,2.25,2.25,0,0,1,.32.81,5.15,5.15,0,0,1,.09,1Z"/><path class="cls-1" d="M230.62,272.65a4.45,4.45,0,0,1,.28-1.53,4.23,4.23,0,0,1,.81-1.37,4.09,4.09,0,0,1,1.3-1,4,4,0,0,1,1.74-.37,3.69,3.69,0,0,1,2,.52,3.36,3.36,0,0,1,1.25,1.34l-1.06.71a2.41,2.41,0,0,0-.43-.65,2.1,2.1,0,0,0-.55-.42,2.38,2.38,0,0,0-.62-.22,3.13,3.13,0,0,0-.62-.07,2.45,2.45,0,0,0-1.18.27,2.62,2.62,0,0,0-.85.71,3.2,3.2,0,0,0-.52,1,3.65,3.65,0,0,0-.17,1.1,3.45,3.45,0,0,0,.2,1.19,3.23,3.23,0,0,0,.57,1,2.8,2.8,0,0,0,.87.69,2.39,2.39,0,0,0,1.1.26,2.79,2.79,0,0,0,.64-.08,2.41,2.41,0,0,0,.64-.25,2.55,2.55,0,0,0,.56-.44,2.19,2.19,0,0,0,.43-.64l1.12.64a2.6,2.6,0,0,1-.58.85,3.66,3.66,0,0,1-.84.62,4.28,4.28,0,0,1-1,.38,4.17,4.17,0,0,1-1,.13,3.53,3.53,0,0,1-1.64-.38,4.32,4.32,0,0,1-1.28-1,4.63,4.63,0,0,1-.84-1.4A4.45,4.45,0,0,1,230.62,272.65Z"/><path class="cls-1" d="M242,277.09a3.26,3.26,0,0,1-1.34-.26,3.07,3.07,0,0,1-1.66-1.75,3.49,3.49,0,0,1,0-2.48,3.08,3.08,0,0,1,.65-1,3.2,3.2,0,0,1,1-.71,3.28,3.28,0,0,1,3.67.71,3.08,3.08,0,0,1,.65,1,3.5,3.5,0,0,1,0,2.48,3.07,3.07,0,0,1-.65,1,3.2,3.2,0,0,1-1,.71A3.24,3.24,0,0,1,242,277.09Zm-1.87-3.24a2.38,2.38,0,0,0,.14.84,2.1,2.1,0,0,0,.4.67,1.85,1.85,0,0,0,.59.44,1.76,1.76,0,0,0,1.48,0,1.81,1.81,0,0,0,.59-.45,2.15,2.15,0,0,0,.4-.67,2.5,2.5,0,0,0,0-1.67,2.14,2.14,0,0,0-.4-.68,1.82,1.82,0,0,0-.59-.45,1.7,1.7,0,0,0-.74-.16,1.63,1.63,0,0,0-.73.17,1.88,1.88,0,0,0-.59.46,2.25,2.25,0,0,0-.4.68A2.31,2.31,0,0,0,240.15,273.85Z"/><path class="cls-1" d="M249,277.09a2.69,2.69,0,0,1-1.18-.26,2.93,2.93,0,0,1-.94-.7,3.23,3.23,0,0,1-.62-1,3.79,3.79,0,0,1,0-2.52,3.28,3.28,0,0,1,.59-1,2.84,2.84,0,0,1,.89-.7,2.59,2.59,0,0,1,2.45.11,2.67,2.67,0,0,1,.9.93v-3.67h1.32v7.2a.52.52,0,0,0,.08.32.38.38,0,0,0,.28.11V277l-.33,0h-.21a1,1,0,0,1-.65-.2.72.72,0,0,1-.28-.53l0-.47a2.51,2.51,0,0,1-.95.92A2.68,2.68,0,0,1,249,277.09Zm.32-1.13a1.81,1.81,0,0,0,.58-.1,2,2,0,0,0,.53-.26,1.87,1.87,0,0,0,.41-.4,1.43,1.43,0,0,0,.25-.49v-1.64a2,2,0,0,0-.31-.55,2.18,2.18,0,0,0-.45-.43,2.07,2.07,0,0,0-.53-.28,1.77,1.77,0,0,0-.57-.1,1.5,1.5,0,0,0-.73.18,1.87,1.87,0,0,0-.57.48,2.36,2.36,0,0,0-.38.68,2.31,2.31,0,0,0-.14.79,2.21,2.21,0,0,0,.15.82,2.13,2.13,0,0,0,.41.67,2,2,0,0,0,.61.46A1.66,1.66,0,0,0,249.31,276Z"/><path class="cls-1" d="M256.91,277.09a3.33,3.33,0,0,1-1.33-.26,3.09,3.09,0,0,1-1-.7,3.17,3.17,0,0,1-.66-1,3.34,3.34,0,0,1-.23-1.25,3.39,3.39,0,0,1,.23-1.25,3.22,3.22,0,0,1,.66-1,3.05,3.05,0,0,1,1-.71,3.38,3.38,0,0,1,1.34-.26,3.23,3.23,0,0,1,1.33.26,3.18,3.18,0,0,1,1,.7,3,3,0,0,1,.64,1,3.38,3.38,0,0,1,.22,1.22c0,.1,0,.19,0,.27s0,.15,0,.21h-5a2.13,2.13,0,0,0,.2.76,2,2,0,0,0,.42.58,1.82,1.82,0,0,0,.59.38,1.84,1.84,0,0,0,.69.13,2.1,2.1,0,0,0,.52-.07,1.83,1.83,0,0,0,.47-.19,1.68,1.68,0,0,0,.38-.31,1.45,1.45,0,0,0,.26-.4l1.13.32a2.61,2.61,0,0,1-1.07,1.16A3.33,3.33,0,0,1,256.91,277.09Zm1.91-3.73a2.11,2.11,0,0,0-.2-.73,1.88,1.88,0,0,0-.41-.57,1.84,1.84,0,0,0-.59-.37,1.91,1.91,0,0,0-.71-.13,1.88,1.88,0,0,0-1.28.5,1.8,1.8,0,0,0-.41.57,2.2,2.2,0,0,0-.19.73Z"/><path class="cls-1" d="M264.77,277.09a2.46,2.46,0,0,1-1.33-.36,2.68,2.68,0,0,1-.91-.94v3.73h-1.32V270.7h1.16v1.13a2.74,2.74,0,0,1,.93-.9,2.49,2.49,0,0,1,1.29-.34,2.67,2.67,0,0,1,1.19.26,3,3,0,0,1,.94.71,3.27,3.27,0,0,1,.62,1,3.46,3.46,0,0,1,.22,1.24,3.89,3.89,0,0,1-.2,1.28,3.17,3.17,0,0,1-.58,1,2.8,2.8,0,0,1-.88.7A2.44,2.44,0,0,1,264.77,277.09Zm-.43-1.13a1.61,1.61,0,0,0,.76-.18,1.89,1.89,0,0,0,.59-.48,2.22,2.22,0,0,0,.38-.68,2.42,2.42,0,0,0,.13-.79,2.21,2.21,0,0,0-.15-.82,2.19,2.19,0,0,0-.41-.67,1.89,1.89,0,0,0-.62-.46,1.83,1.83,0,0,0-.78-.17,1.61,1.61,0,0,0-.53.1,2.13,2.13,0,0,0-.52.26,2.06,2.06,0,0,0-.42.39,1.31,1.31,0,0,0-.25.49v1.64a2.4,2.4,0,0,0,.31.54,2.32,2.32,0,0,0,.43.43,2.07,2.07,0,0,0,.51.29A1.53,1.53,0,0,0,264.34,276Z"/><path class="cls-1" d="M268.76,268.22h1.32v6.95a.78.78,0,0,0,.18.55.65.65,0,0,0,.5.2,1.17,1.17,0,0,0,.31,0l.33-.11.19,1a3.08,3.08,0,0,1-.68.21,3.72,3.72,0,0,1-.71.08,1.45,1.45,0,0,1-1.06-.37,1.42,1.42,0,0,1-.38-1.06Z"/><path class="cls-1" d="M274,277.09a2.34,2.34,0,0,1-.85-.15,2,2,0,0,1-.67-.41,1.94,1.94,0,0,1-.44-.62,1.87,1.87,0,0,1-.16-.78,1.68,1.68,0,0,1,.19-.8,1.87,1.87,0,0,1,.55-.62,2.65,2.65,0,0,1,.84-.41,3.78,3.78,0,0,1,1.07-.14,4.94,4.94,0,0,1,.88.08,4.42,4.42,0,0,1,.78.21V273a1.46,1.46,0,0,0-.4-1.09,1.56,1.56,0,0,0-1.14-.39,2.76,2.76,0,0,0-1,.19,5,5,0,0,0-1,.53l-.41-.84a4.45,4.45,0,0,1,2.52-.82,2.88,2.88,0,0,1,2,.66,2.44,2.44,0,0,1,.72,1.9v2.27q0,.42.35.43V277l-.33,0h-.27a.85.85,0,0,1-.59-.19.81.81,0,0,1-.26-.49l0-.4a2.8,2.8,0,0,1-1,.85A3.05,3.05,0,0,1,274,277.09Zm.36-1a2.37,2.37,0,0,0,.91-.17,1.56,1.56,0,0,0,.67-.49.61.61,0,0,0,.25-.46v-.83a4.09,4.09,0,0,0-1.45-.28,2,2,0,0,0-1.16.31.94.94,0,0,0-.45.81,1,1,0,0,0,.35.79A1.27,1.27,0,0,0,274.39,276.12Z"/><path class="cls-1" d="M278.72,273.83a3.42,3.42,0,0,1,.23-1.25,3.05,3.05,0,0,1,1.68-1.73,3.37,3.37,0,0,1,1.34-.26,3.17,3.17,0,0,1,1.67.43,2.7,2.7,0,0,1,1.05,1.13l-1.28.41a1.65,1.65,0,0,0-1.46-.84,1.75,1.75,0,0,0-.74.16,1.78,1.78,0,0,0-.59.44,2.1,2.1,0,0,0-.4.67,2.42,2.42,0,0,0-.14.85,2.35,2.35,0,0,0,.15.85,2.19,2.19,0,0,0,.41.68,1.88,1.88,0,0,0,.6.45,1.67,1.67,0,0,0,.73.16,1.78,1.78,0,0,0,.48-.07,1.7,1.7,0,0,0,.79-.46,1,1,0,0,0,.22-.34l1.3.38a2.57,2.57,0,0,1-1,1.16,3.23,3.23,0,0,1-1.73.45,3.28,3.28,0,0,1-1.33-.26,3.12,3.12,0,0,1-1-.71,3.24,3.24,0,0,1-.66-1A3.34,3.34,0,0,1,278.72,273.83Z"/><path class="cls-1" d="M288.62,277.09a3.33,3.33,0,0,1-1.33-.26,3.09,3.09,0,0,1-1-.7,3.17,3.17,0,0,1-.66-1,3.34,3.34,0,0,1-.23-1.25,3.39,3.39,0,0,1,.23-1.25,3.22,3.22,0,0,1,.66-1,3.05,3.05,0,0,1,1-.71,3.38,3.38,0,0,1,1.34-.26,3.23,3.23,0,0,1,1.33.26,3.18,3.18,0,0,1,1,.7,3,3,0,0,1,.64,1,3.38,3.38,0,0,1,.22,1.22c0,.1,0,.19,0,.27s0,.15,0,.21h-5a2.13,2.13,0,0,0,.2.76,2,2,0,0,0,.42.58,1.82,1.82,0,0,0,.59.38,1.84,1.84,0,0,0,.69.13,2.1,2.1,0,0,0,.52-.07,1.83,1.83,0,0,0,.47-.19,1.68,1.68,0,0,0,.38-.31,1.45,1.45,0,0,0,.26-.4l1.13.32a2.61,2.61,0,0,1-1.07,1.16A3.33,3.33,0,0,1,288.62,277.09Zm1.91-3.73a2.11,2.11,0,0,0-.2-.73,1.88,1.88,0,0,0-.41-.57,1.84,1.84,0,0,0-.59-.37,1.91,1.91,0,0,0-.71-.13,1.88,1.88,0,0,0-1.28.5,1.8,1.8,0,0,0-.41.57,2.2,2.2,0,0,0-.19.73Z"/></g></g></svg>