<svg class="nc-icon outline" xmlns="http://www.w3.org/2000/svg" width="48" height="48" viewBox="0 0 48 48"><g fill="none" stroke-width="2" stroke-miterlimit="10"><path data-color="color-2" stroke="#4282ca" stroke-linecap="square" d="M24 11c0-4.971 4.029-9 9-9s9 4.029 9 9-4.029 11-9 11-9-6.029-9-11z"/><path data-cap="butt" data-color="color-2" stroke="#4282ca" d="M26 27.968c1.905-.57 4.227-.968 7-.968 4.986 0 8.258 1.286 10.273 2.553 1.719 1.082 2.727 3 2.727 5.031V46H33"/><path stroke="#444" stroke-linecap="square" d="M6 23a8 8 0 0 1 16 0c0 4.418-3.582 9-8 9s-8-4.582-8-9zM26 42.494a3.98 3.98 0 0 0-2.488-3.705C21.432 37.957 18.141 37 14 37s-7.432.957-9.512 1.789A3.982 3.982 0 0 0 2 42.494V46h24v-3.506z"/></g></svg>