<?xml version="1.0" encoding="UTF-8" standalone="no"?>
<svg width="46px" height="46px" viewBox="0 0 46 46" version="1.1" xmlns="http://www.w3.org/2000/svg" xmlns:xlink="http://www.w3.org/1999/xlink">
    <!-- Generator: Sketch 3.8.3 (29802) - http://www.bohemiancoding.com/sketch -->
    <title>design-48px-outline-2_ungroup</title>
    <desc>Created with Sketch.</desc>
    <defs></defs>
    <g id="Page-1" stroke="none" stroke-width="1" fill="none" fill-rule="evenodd">
        <g id="Landing-Writers" transform="translate(-445.000000, -3137.000000)" stroke-width="2">
            <g id="design-48px-outline-2_ungroup" transform="translate(446.000000, 3138.000000)">
                <g id="Group">
                    <path d="M15,38 L15,29" id="Shape" stroke="#E17CFF"></path>
                    <path d="M38,41 L18,41" id="Shape" stroke="#E17CFF"></path>
                    <path d="M41,18 L41,38" id="Shape" stroke="#E17CFF"></path>
                    <path d="M29,15 L38,15" id="Shape" stroke="#E17CFF"></path>
                    <path d="M3,26 L3,6" id="Shape" stroke="#000000"></path>
                    <path d="M26,29 L6,29" id="Shape" stroke="#000000"></path>
                    <path d="M29,6 L29,26" id="Shape" stroke="#000000"></path>
                    <path d="M6,3 L26,3" id="Shape" stroke="#000000"></path>
                    <rect id="Rectangle-path" stroke="#000000" x="0" y="0" width="6" height="6"></rect>
                    <rect id="Rectangle-path" stroke="#000000" x="26" y="0" width="6" height="6"></rect>
                    <rect id="Rectangle-path" stroke="#000000" x="0" y="26" width="6" height="6"></rect>
                    <rect id="Rectangle-path" stroke="#000000" x="26" y="26" width="6" height="6"></rect>
                    <rect id="Rectangle-path" stroke="#E17CFF" x="38" y="12" width="6" height="6"></rect>
                    <rect id="Rectangle-path" stroke="#E17CFF" x="38" y="38" width="6" height="6"></rect>
                    <rect id="Rectangle-path" stroke="#E17CFF" x="12" y="38" width="6" height="6"></rect>
                </g>
            </g>
        </g>
    </g>
</svg>