<?xml version="1.0" encoding="UTF-8" standalone="no"?>
<svg width="54px" height="61px" viewBox="0 0 54 61" version="1.1" xmlns="http://www.w3.org/2000/svg" xmlns:xlink="http://www.w3.org/1999/xlink">
    <!-- Generator: Sketch 3.8.3 (29802) - http://www.bohemiancoding.com/sketch -->
    <title>business-64px-outline_building</title>
    <desc>Created with Sketch.</desc>
    <defs></defs>
    <g id="Page-1" stroke="none" stroke-width="1" fill="none" fill-rule="evenodd">
        <g id="Landing-Writers" transform="translate(-303.000000, -1122.000000)" stroke-width="2">
            <g id="business-64px-outline_building" transform="translate(304.000000, 1122.000000)">
                <g id="Group">
                    <polyline id="Shape" stroke="#000000" points="36 32 36 14 30 14 30 8 22 8 22 14 16 14 16 38"></polyline>
                    <path d="M22,60 L30,60" id="Shape" stroke="#000000"></path>
                    <path d="M26,0 L26,8" id="Shape" stroke="#000000"></path>
                    <rect id="Rectangle-path" stroke="#000000" x="0" y="38" width="22" height="22"></rect>
                    <rect id="Rectangle-path" stroke="#000000" x="30" y="32" width="22" height="28"></rect>
                    <path d="M36,40 L38,40" id="Shape" stroke="#5075E5"></path>
                    <path d="M36,46 L38,46" id="Shape" stroke="#5075E5"></path>
                    <path d="M36,52 L38,52" id="Shape" stroke="#5075E5"></path>
                    <path d="M44,40 L46,40" id="Shape" stroke="#5075E5"></path>
                    <path d="M44,46 L46,46" id="Shape" stroke="#5075E5"></path>
                    <path d="M44,52 L46,52" id="Shape" stroke="#5075E5"></path>
                    <path d="M14,46 L16,46" id="Shape" stroke="#5075E5"></path>
                    <path d="M14,52 L16,52" id="Shape" stroke="#5075E5"></path>
                    <path d="M6,46 L8,46" id="Shape" stroke="#5075E5"></path>
                    <path d="M6,52 L8,52" id="Shape" stroke="#5075E5"></path>
                </g>
            </g>
        </g>
    </g>
</svg>