<svg width="46" height="46" viewBox="0 0 46 46" xmlns="http://www.w3.org/2000/svg"><title>users-48px-outline_network</title><g transform="translate(1 1)" stroke-width="2" fill="none" fill-rule="evenodd"><path d="M37 16l-4 4M7 16l4 4M22 8v6" stroke="#5BE5A3"/><path d="M16.9 34.2L10.4 37C9 37.6 8 39 8 40.6V44h28v-3.4c0-1.6-1-3-2.4-3.7l-6.5-2.8" stroke="#000"/><circle stroke="#5BE5A3" cx="22" cy="4" r="4"/><circle stroke="#5BE5A3" cx="40" cy="13" r="4"/><circle stroke="#5BE5A3" cx="4" cy="13" r="4"/><path d="M22 36c-4.4 0-8-3.6-8-8v-2c0-4.4 3.6-8 8-8s8 3.6 8 8v2c0 4.4-3.6 8-8 8z" stroke="#000"/></g></svg>