<svg width="24" height="21" viewBox="0 0 24 21" xmlns="http://www.w3.org/2000/svg"><title>text-24px-glyph_capitalize</title><g fill="#5C8BE7" fill-rule="evenodd"><path d="M23 3h-8a1 1 0 0 1 0-2h8a1 1 0 0 1 0 2zM23 9h-8a1 1 0 0 1 0-2h8a1 1 0 0 1 0 2zM23 15H1a1 1 0 1 1 0-2h22a1 1 0 1 1 0 2zM23 21H1a1 1 0 1 1 0-2h22a1 1 0 1 1 0 2zM7.62 10V8.923l1.133-.125-.498-1.436H4.83l-.484 1.436 1.092.125V10H1.584V8.923l.608-.152c.166-.042.29-.097.345-.263L5.562 0h2.445l3.01 8.536c.056.166.167.193.332.235l.635.152V10H7.62zM6.612 2.113h-.083L5.258 5.87h2.583L6.61 2.113z"/></g></svg>