<?xml version="1.0" encoding="UTF-8" standalone="no"?>
<svg width="46px" height="46px" viewBox="0 0 46 46" version="1.1" xmlns="http://www.w3.org/2000/svg" xmlns:xlink="http://www.w3.org/1999/xlink">
    <!-- Generator: Sketch 3.8.3 (29802) - http://www.bohemiancoding.com/sketch -->
    <title>tech-48px-outline_sync</title>
    <desc>Created with Sketch.</desc>
    <defs></defs>
    <g id="Page-1" stroke="none" stroke-width="1" fill="none" fill-rule="evenodd">
        <g id="Landing-Writers" transform="translate(-1030.000000, -3137.000000)" stroke-width="2">
            <g id="tech-48px-outline_sync" transform="translate(1031.000000, 3138.000000)">
                <g id="Group">
                    <path d="M14,26 L4,26 C1.8,26 0,24.2 0,22 L0,4 C0,1.8 1.8,0 4,0 L14,0 C16.2,0 18,1.8 18,4 L18,22 C18,24.2 16.2,26 14,26 L14,26 Z" id="Shape" stroke="#000000"></path>
                    <path d="M0,18 L18,18" id="Shape" stroke="#000000"></path>
                    <path d="M0,6 L18,6" id="Shape" stroke="#000000"></path>
                    <path d="M40,44 L30,44 C27.8,44 26,42.2 26,40 L26,22 C26,19.8 27.8,18 30,18 L40,18 C42.2,18 44,19.8 44,22 L44,40 C44,42.2 42.2,44 40,44 L40,44 Z" id="Shape" stroke="#000000"></path>
                    <path d="M26,36 L44,36" id="Shape" stroke="#000000"></path>
                    <path d="M26,24 L44,24" id="Shape" stroke="#000000"></path>
                    <path d="M26,0 L26,0 C31.5,0 36,4.5 36,10 L36,10" id="Shape" stroke="#96D1FC"></path>
                    <path d="M8,34 C8,39.5 12.5,44 18,44" id="Shape" stroke="#96D1FC"></path>
                </g>
            </g>
        </g>
    </g>
</svg>