<?xml version="1.0" encoding="UTF-8" standalone="no"?>
<svg width="61px" height="57px" viewBox="0 0 61 57" version="1.1" xmlns="http://www.w3.org/2000/svg" xmlns:xlink="http://www.w3.org/1999/xlink">
    <!-- Generator: Sketch 3.8.3 (29802) - http://www.bohemiancoding.com/sketch -->
    <title>business-64px-outline_handout</title>
    <desc>Created with Sketch.</desc>
    <defs></defs>
    <g id="Page-1" stroke="none" stroke-width="1" fill="none" fill-rule="evenodd">
        <g id="Landing-Writers" transform="translate(-1080.000000, -1121.000000)" stroke-width="2">
            <g id="business-64px-outline_handout" transform="translate(1081.000000, 1122.000000)">
                <g id="Group">
                    <g>
                        <path d="M8,28 L10,28 C14.5,28 19.7,30.5 22,34 L30,34 C34,34 38,38 38,42 L20,42" id="Shape" stroke="#000000"></path>
                        <path d="M36.7,38 L50,38 C57.2,38 58,42 58,42 L29.4,53.6 C27.1,54.5 24.6,54.4 22.4,53.3 L7.9,46" id="Shape" stroke="#000000"></path>
                        <circle id="Oval" stroke="#5075E5" cx="46" cy="20" r="8"></circle>
                        <rect id="Rectangle-path" stroke="#000000" x="0" y="24" width="8" height="26"></rect>
                        <circle id="Oval" stroke="#5075E5" cx="22" cy="8" r="8"></circle>
                        <path d="M20,8 L24,8" id="Shape" stroke="#5075E5"></path>
                        <path d="M44,20 L48,20" id="Shape" stroke="#5075E5"></path>
                    </g>
                </g>
            </g>
        </g>
    </g>
</svg>