<svg width="238" height="25" viewBox="0 0 238 25" xmlns="http://www.w3.org/2000/svg"><title>Group</title><g fill="none" fill-rule="evenodd"><path d="M5.472 5.939c-3.72 0-5.218 1.912-5.218 6.475 0 4.894 1.323 6.832 5.168 6.832 1.273 0 3.795-.459 3.795-.459l-.075-2.218s-1.972.204-2.92.204C3.524 16.773 3 15.677 3 12.413c0-2.93.599-4.001 3.195-4.001.949 0 2.921.204 2.921.204l.1-2.193S6.795 5.94 5.472 5.94zm11.21 0c-4.17 0-5.568 2.447-5.568 6.577 0 4.232 1.299 6.73 5.568 6.73 4.294 0 5.567-2.498 5.567-6.73 0-4.13-1.398-6.577-5.567-6.577zm0 10.962c-2.322 0-2.821-1.428-2.821-4.385s.624-4.232 2.82-4.232c2.198 0 2.822 1.275 2.822 4.232 0 2.957-.5 4.385-2.821 4.385zM35.132.917H32.41V6.27c-.15-.025-1.848-.331-2.847-.331-3.57 0-5.193 2.065-5.193 6.679 0 4.92 1.523 6.628 4.719 6.628 1.523 0 3.345-.943 3.345-.943v.663h2.697V.916zm-5.618 15.856c-1.522 0-2.396-.892-2.396-4.155 0-2.906.799-4.283 2.646-4.283 1.049 0 2.497.23 2.647.255v7.546s-1.473.637-2.897.637zm13.907.051c-2.073 0-2.822-1.02-2.847-3.059h7.74l.175-1.988c0-3.977-1.748-5.838-5.243-5.838-3.446 0-5.418 2.116-5.418 6.78 0 4.488 1.448 6.527 5.193 6.527 2.197 0 5.043-.586 5.043-.586l-.05-2.065s-2.621.23-4.593.23zm-2.872-5.2c.025-2.448.85-3.39 2.697-3.39 1.822 0 2.571.84 2.571 3.39H40.55zM51.335 24.7h1.473V18.89c.45.102 1.747.331 2.996.331 3.87 0 5.392-1.886 5.392-6.806 0-4.436-1.323-6.45-4.444-6.45-1.997 0-3.944 1.224-3.944 1.224v-.969h-1.473v18.482zm5.268-17.36c1.947 0 3.045 1.351 3.045 5.073 0 3.926-.998 5.455-3.894 5.455-1.199 0-2.522-.23-2.946-.306V8.488s1.922-1.147 3.795-1.147zm7.939 11.625h1.473V.56h-1.473v18.406zm13.956-8.948c0-2.703-1.149-4.054-3.87-4.054-2.097 0-4.843.536-4.843.536l.075 1.223s2.92-.382 4.718-.382c1.598 0 2.447.74 2.447 2.677v1.198l-4.244.433c-2.522.255-3.67 1.377-3.67 3.722 0 2.55 1.223 3.85 3.42 3.85 2.347 0 4.694-1.046 4.694-1.046.674.765 1.597 1.02 2.82 1.02l.076-1.224c-.824-.102-1.548-.357-1.623-1.121v-6.832zm-1.473 2.396v4.614s-2.272.892-4.294.892c-1.373 0-2.073-.943-2.073-2.574 0-1.53.625-2.346 2.297-2.499l4.07-.433zm9.986-6.45c-3.72 0-5.168 1.734-5.168 6.399 0 5.022 1.099 6.857 5.143 6.857 1.074 0 3.296-.305 3.296-.305l-.05-1.3s-2.022.229-2.971.229c-3.27 0-3.87-1.479-3.87-5.481 0-3.671.874-5.022 3.87-5.022.949 0 2.92.255 2.92.255l.076-1.3s-2.172-.332-3.246-.332zm10.436 11.88c-2.621 0-3.47-1.606-3.47-4.614h8.488l.05-1.224c0-4.283-1.698-6.042-4.918-6.042-3.046 0-5.143 1.76-5.143 6.68 0 4.257 1.123 6.551 4.843 6.576 1.948 0 4.769-.356 4.769-.356l-.05-1.25s-2.746.23-4.569.23zm-3.47-5.889c0-3.39 1.348-4.665 3.62-4.665 2.347 0 3.42 1.224 3.42 4.665h-7.04z" fill="#FFF"/><path d="M110.484 7.844l.127-.596 1.426-.478.147-.967a5.468 5.468 0 0 1 .761-2.056 4.834 4.834 0 0 1 1.421-1.499c.557-.371 1.128-.557 1.714-.557.3 0 .575.018.825.054.25.036.49.103.718.2l-.44 1.309a3.13 3.13 0 0 0-.6-.298 2.253 2.253 0 0 0-.786-.122c-.58 0-1.06.256-1.44.767-.381.51-.624 1.2-.728 2.065l-.137 1.055h2.588l-.127 1.123h-2.598l-1.396 10.879c-.163 1.315-.539 2.356-1.128 3.125-.59.768-1.343 1.155-2.26 1.162a7.758 7.758 0 0 1-.914-.034 4.386 4.386 0 0 1-.669-.103l.39-1.309c.105.046.336.113.694.2.358.089.655.13.889.123.417 0 .737-.228.962-.684.224-.456.392-1.11.503-1.963l1.426-11.396h-1.368zm13.833-.66c.577.362 1.014.886 1.314 1.573.3.687.45 1.509.45 2.466a8.264 8.264 0 0 1-.709 3.359c-.472 1.074-1.13 1.945-1.973 2.612-.843.668-1.788 1.001-2.837 1.001-.826 0-1.53-.179-2.109-.537-.58-.358-1.019-.879-1.318-1.562-.3-.684-.45-1.507-.45-2.471 0-1.178.238-2.305.713-3.379.476-1.074 1.135-1.943 1.978-2.607.843-.664 1.789-.996 2.837-.996.827 0 1.528.18 2.104.542zm-.44 1.382c-.432-.644-1.075-.966-1.928-.966-.775 0-1.445.302-2.011.908-.567.605-.995 1.369-1.285 2.29a9.214 9.214 0 0 0-.434 2.778c0 1.172.223 2.075.669 2.71.446.635 1.092.952 1.938.952.762 0 1.423-.302 1.983-.908.56-.605.986-1.369 1.279-2.29a9.06 9.06 0 0 0 .44-2.759c0-1.165-.217-2.07-.65-2.715zm4.723-.761l.136-.703 2.022-.42.351.185-.127 1.748-.117.84c.17-.384.441-.794.816-1.23a5.239 5.239 0 0 1 1.347-1.114 3.217 3.217 0 0 1 1.646-.459c.325 0 .537.043.635.127l-.323 1.621c-.175-.09-.488-.136-.937-.136-.397 0-.812.105-1.245.317a4.08 4.08 0 0 0-1.221.947c-.38.42-.688.93-.923 1.529L129.791 18h-1.445l1.25-9.746-.996-.45zm12.72 2.73c.452-1.11 1.111-2.037 1.977-2.78.866-.741 1.881-1.112 3.047-1.112.358 0 .737.044 1.137.131.4.088.738.2 1.011.337l-.43 1.514a4.143 4.143 0 0 0-1.123-.645 2.636 2.636 0 0 0-.937-.185c-.768 0-1.439.242-2.012.727s-1.015 1.166-1.328 2.041c-.312.876-.469 1.88-.469 3.013 0 1.153.209 2.028.625 2.627.417.6 1 .899 1.748.899.372 0 .712-.05 1.02-.147.31-.098.597-.23.86-.395.264-.166.581-.393.952-.68l.303.645c-.377.424-.86.808-1.445 1.153-.586.345-1.283.517-2.09.517-.736 0-1.367-.175-1.895-.527-.527-.352-.93-.858-1.21-1.519-.28-.66-.42-1.443-.42-2.348 0-1.068.226-2.157.678-3.267zm15.751-3.35c.576.36 1.014.885 1.314 1.572.3.687.449 1.509.449 2.466a8.264 8.264 0 0 1-.708 3.359c-.472 1.074-1.13 1.945-1.973 2.612-.843.668-1.788 1.001-2.837 1.001-.826 0-1.53-.179-2.109-.537-.58-.358-1.019-.879-1.318-1.562-.3-.684-.45-1.507-.45-2.471 0-1.178.238-2.305.713-3.379.476-1.074 1.135-1.943 1.978-2.607.843-.664 1.789-.996 2.837-.996.827 0 1.528.18 2.104.542zm-.44 1.381c-.432-.644-1.075-.966-1.928-.966-.775 0-1.445.302-2.012.908-.566.605-.994 1.369-1.284 2.29a9.214 9.214 0 0 0-.434 2.778c0 1.172.223 2.075.669 2.71.446.635 1.092.952 1.938.952.762 0 1.423-.302 1.982-.908.56-.605.987-1.369 1.28-2.29a9.06 9.06 0 0 0 .44-2.759c0-1.165-.217-2.07-.65-2.715zm11.993 2.793c.081-.644.122-1.227.122-1.748 0-.455-.04-.807-.122-1.054-.081-.248-.218-.424-.41-.528-.192-.104-.46-.156-.806-.156-.39 0-.823.129-1.299.386a6.716 6.716 0 0 0-1.401 1.035 8.324 8.324 0 0 0-1.206 1.42L162.535 18h-1.445l1.299-9.785-.948-.46.127-.702 2.002-.41.371.195-.263 2.549a8.404 8.404 0 0 1 2.06-1.963c.782-.521 1.55-.781 2.305-.781.716 0 1.252.205 1.606.615.355.41.546 1.064.572 1.963a7.759 7.759 0 0 1 1.855-1.85c.697-.486 1.39-.728 2.08-.728.703 0 1.255.232 1.656.698.4.465.6 1.196.6 2.192 0 .32-.03.679-.088 1.08-.058.4-.146.951-.263 1.655l-.137.79-.127.762c-.013.091-.054.33-.122.718-.069.387-.124.744-.166 1.07-.043.325-.07.608-.083.849l-.01.195c0 .345.078.518.234.518a.914.914 0 0 0 .489-.161c.169-.108.377-.285.625-.532l.244.43a2.79 2.79 0 0 1-.425.497 3.393 3.393 0 0 1-.752.547 1.892 1.892 0 0 1-.923.244c-.338 0-.589-.09-.752-.268-.163-.18-.237-.46-.224-.845.013-.325.048-.7.107-1.123.059-.423.14-.954.244-1.592.052-.273.101-.566.147-.879l.117-.674c.124-.722.22-1.326.288-1.811.068-.485.102-.946.102-1.382 0-.443-.047-.79-.141-1.04-.095-.25-.236-.428-.425-.532-.189-.104-.44-.156-.752-.156-.514 0-1.089.245-1.723.737a8.453 8.453 0 0 0-1.724 1.83 50.834 50.834 0 0 1-.342 2.608L169.146 18h-1.464l.625-4.463c.13-.807.236-1.533.317-2.178zm11.519 11.72h-1.416l2.03-15.01-1.054-.391.127-.625 2.1-.41.361.195-.186 1.64a4.876 4.876 0 0 1 1.387-1.303 3.363 3.363 0 0 1 1.836-.532c.73 0 1.343.179 1.84.537.499.358.87.854 1.114 1.489.244.635.366 1.369.366 2.202 0 1.068-.25 2.173-.752 3.316a7.546 7.546 0 0 1-2.158 2.86c-.937.766-2.028 1.148-3.271 1.148-.475 0-1.016-.081-1.621-.244l-.703 5.127zm.859-6.31c.417.313.983.47 1.7.47.91 0 1.702-.325 2.372-.972.67-.648 1.18-1.459 1.529-2.432.348-.973.522-1.925.522-2.856 0-1.03-.182-1.822-.547-2.378-.364-.557-.86-.835-1.484-.835-.43 0-.848.1-1.255.302a4.43 4.43 0 0 0-1.089.757c-.319.303-.58.61-.781.923l-.967 7.022zm18.887.254c-.059.105-.18.251-.362.44s-.41.358-.683.508c-.274.15-.56.224-.86.224-.755 0-1.132-.384-1.132-1.152l.01-.186.097-.722.02-.127a6.804 6.804 0 0 1-1.587 1.543c-.616.43-1.252.644-1.91.644-1.054 0-1.836-.379-2.343-1.137-.508-.759-.762-1.786-.762-3.081 0-1.062.254-2.164.762-3.306a7.634 7.634 0 0 1 2.187-2.871c.95-.772 2.05-1.157 3.301-1.157.3 0 .622.034.967.102.345.068.664.155.957.259l.02-.02 1.093-.332-1.309 9.659c-.013.117-.02.201-.02.253 0 .209.043.362.128.46.085.097.176.146.273.146a.638.638 0 0 0 .371-.132c.124-.088.297-.236.518-.444l.264.43zm-1.866-8.955a2.115 2.115 0 0 0-.737-.346 3.443 3.443 0 0 0-.884-.113 3.43 3.43 0 0 0-2.412.953c-.683.634-1.203 1.432-1.557 2.392-.355.96-.533 1.906-.533 2.837 0 1.042.15 1.85.45 2.427.3.576.765.864 1.396.864.436 0 .876-.129 1.318-.386a5.58 5.58 0 0 0 1.202-.937c.358-.368.654-.734.888-1.099l.87-6.592zm4.64-.312l.136-.703 2.002-.41.37.195-.273 2.549a8.336 8.336 0 0 1 2.061-1.958c.788-.524 1.556-.786 2.305-.786.729 0 1.282.22 1.66.664.377.442.566 1.181.566 2.216 0 .352-.034.756-.102 1.211-.069.456-.165 1.01-.288 1.66l-.127.674-.108.586c-.11.619-.202 1.151-.273 1.597a11.67 11.67 0 0 0-.137 1.216l-.01.185c0 .163.02.29.059.381.039.091.098.137.176.137.26 0 .58-.176.957-.527l.244.43c-.059.103-.187.247-.386.429-.198.182-.44.345-.723.488a1.915 1.915 0 0 1-.874.215c-.664 0-.996-.345-.996-1.035 0-.313.036-.697.108-1.152a49.18 49.18 0 0 1 .303-1.69l.146-.79.117-.626c.137-.736.243-1.359.318-1.87.074-.511.112-.988.112-1.43 0-.45-.044-.8-.132-1.05-.088-.251-.23-.429-.425-.533-.195-.104-.469-.156-.82-.156-.39 0-.824.129-1.299.386a6.633 6.633 0 0 0-1.401 1.04 8.483 8.483 0 0 0-1.206 1.426L203.756 18h-1.445l1.308-9.785-.957-.46zm12.235-.03l.127-.634 2.442-.41.39.205-1.377 9.57a2.08 2.08 0 0 0-.02.215c0 .163.03.286.089.371.058.085.13.127.215.127a.85.85 0 0 0 .464-.156c.159-.104.356-.284.59-.537l.254.43a3.682 3.682 0 0 1-.43.502c-.195.199-.437.38-.727.542-.29.163-.597.244-.923.244-.319 0-.574-.08-.766-.239-.192-.16-.288-.415-.288-.767 0-.234.055-.747.166-1.538.11-.79.273-1.896.488-3.315.247-1.595.452-3.001.615-4.219l-1.309-.39zm1.841-4.955c.108-.186.246-.334.415-.445a.922.922 0 0 1 .508-.166c.274 0 .492.083.654.25.163.165.245.378.245.639a1.328 1.328 0 0 1-.572 1.098 1 1 0 0 1-.561.171.79.79 0 0 1-.6-.268.946.946 0 0 1-.25-.67c0-.22.054-.424.161-.61zm10.816 4.189c.41.212.717.501.923.87.205.367.307.785.307 1.254 0 .937-.408 1.73-1.225 2.378-.817.648-1.77 1.134-2.857 1.46-1.087.325-2.025.498-2.812.517a4.73 4.73 0 0 0 .23 1.973c.165.488.434.892.805 1.211.37.32.85.479 1.435.479.573 0 1.169-.13 1.787-.391.619-.26 1.195-.658 1.729-1.191l.361.664c-.208.286-.516.586-.923.898a5.837 5.837 0 0 1-1.43.791 4.607 4.607 0 0 1-1.7.322c-.872 0-1.596-.2-2.172-.6-.576-.4-1-.926-1.27-1.577a5.474 5.474 0 0 1-.405-2.12c0-1.243.25-2.423.752-3.54.501-1.116 1.188-2.015 2.06-2.695.873-.68 1.836-1.02 2.891-1.02.599 0 1.104.105 1.514.317zm-.699 1.02c-.276-.28-.662-.42-1.157-.42-.69 0-1.308.261-1.855.782-.547.52-.985 1.168-1.314 1.943a7.719 7.719 0 0 0-.6 2.276 8.532 8.532 0 0 0 2.417-.455c.83-.276 1.525-.665 2.085-1.167.56-.5.84-1.077.84-1.728 0-.54-.139-.95-.416-1.23zm4.654 8.921c.495.153 1.019.23 1.572.23.67 0 1.229-.125 1.675-.376.446-.25.669-.689.669-1.314 0-.358-.1-.688-.298-.99a3.331 3.331 0 0 0-.66-.753c-.24-.198-.579-.454-1.015-.766a7.115 7.115 0 0 1-1.48-1.377 2.858 2.858 0 0 1-.659-1.856c0-.612.17-1.149.508-1.611a3.29 3.29 0 0 1 1.363-1.07 4.544 4.544 0 0 1 1.85-.375c.482 0 .973.044 1.475.131.501.088.843.178 1.025.269l-.293 1.318c-.045-.071-.177-.164-.395-.278a3.874 3.874 0 0 0-.82-.298 4.239 4.239 0 0 0-1.06-.127c-.651 0-1.175.132-1.572.396-.398.263-.619.656-.665 1.176-.026.365.043.702.206 1.011.162.31.367.581.615.816.247.234.553.485.918.752.508.384.906.706 1.196.966.29.26.555.596.796 1.006.24.41.361.87.361 1.377 0 .632-.172 1.177-.517 1.636-.345.459-.81.807-1.392 1.045a5.035 5.035 0 0 1-1.919.356 8.078 8.078 0 0 1-1.743-.19c-.576-.127-.952-.269-1.128-.425l.264-1.182c.254.183.628.35 1.123.503z" fill="#EFEFEF"/></g></svg>