<?xml version="1.0" encoding="UTF-8" standalone="no"?>
<svg width="238px" height="25px" viewBox="0 0 238 25" version="1.1" xmlns="http://www.w3.org/2000/svg" xmlns:xlink="http://www.w3.org/1999/xlink">
    <!-- Generator: Sketch 3.8.3 (29802) - http://www.bohemiancoding.com/sketch -->
    <title>Group</title>
    <desc>Created with Sketch.</desc>
    <defs></defs>
    <g id="Page-1" stroke="none" stroke-width="1" fill="none" fill-rule="evenodd">
        <g id="Group">
            <g id="Page-1" fill="#FFFFFF">
                <g id="Landing-Writers">
                    <g id="Group-15">
                        <g id="download">
                            <g id="codeplace">
                                <g id="Boostrap3-grid-system-layouts">
                                    <g id="Desktop">
                                        <path d="M5.47214601,5.9387931 C1.75220645,5.9387931 0.25424368,7.85073888 0.25424368,12.4139163 C0.25424368,17.3084975 1.57744416,19.2459359 5.42221465,19.2459359 C6.69548207,19.2459359 9.21705293,18.787069 9.21705293,18.787069 L9.1421542,16.5692118 C9.1421542,16.5692118 7.1698376,16.7731527 6.22112739,16.7731527 C3.52479508,16.7731527 3.0005082,15.6769704 3.0005082,12.4139163 C3.0005082,9.48226603 3.59969297,8.41157638 6.19616171,8.41157638 C7.14487107,8.41157638 9.11718852,8.61551724 9.11718852,8.61551724 L9.21705293,6.42315267 C9.21705293,6.42315267 6.79534648,5.9387931 5.47214601,5.9387931 L5.47214601,5.9387931 L5.47214601,5.9387931 L5.47214601,5.9387931 Z M16.6818994,5.9387931 C12.51257,5.9387931 11.1144717,8.38608371 11.1144717,12.5158867 C11.1144717,16.7476601 12.4127065,19.2459359 16.6818994,19.2459359 C20.9760589,19.2459359 22.2493263,16.7476601 22.2493263,12.5158867 C22.2493263,8.38608371 20.851228,5.9387931 16.6818994,5.9387931 L16.6818994,5.9387931 L16.6818994,5.9387931 L16.6818994,5.9387931 Z M16.6818994,16.9006158 C14.3600574,16.9006158 13.8607362,15.4730296 13.8607362,12.5158867 C13.8607362,9.55874388 14.4848875,8.28411328 16.6818994,8.28411328 C18.8789114,8.28411328 19.5030618,9.55874388 19.5030618,12.5158867 C19.5030618,15.4730296 19.0037415,16.9006158 16.6818994,16.9006158 L16.6818994,16.9006158 L16.6818994,16.9006158 L16.6818994,16.9006158 Z M35.1318048,0.916748793 L32.410506,0.916748793 L32.410506,6.27019707 C32.2607094,6.2447044 30.5630186,5.9387931 29.564377,5.9387931 C25.9942333,5.9387931 24.3714404,8.00369457 24.3714404,12.6178572 C24.3714404,17.537931 25.8943689,19.2459359 29.0900224,19.2459359 C30.6129508,19.2459359 32.4354717,18.3027094 32.4354717,18.3027094 L32.4354717,18.9655172 L35.1318048,18.9655172 L35.1318048,0.916748793 L35.1318048,0.916748793 L35.1318048,0.916748793 Z M29.5144448,16.7731527 C27.9915164,16.7731527 27.1177049,15.8809113 27.1177049,12.6178572 C27.1177049,9.71169948 27.9166185,8.33509853 29.764105,8.33509853 C30.8126788,8.33509853 32.2607094,8.56453198 32.410506,8.59002466 L32.410506,16.1358374 C32.410506,16.1358374 30.9375097,16.7731527 29.5144448,16.7731527 L29.5144448,16.7731527 L29.5144448,16.7731527 L29.5144448,16.7731527 Z M43.4205306,16.8241379 C41.3483487,16.8241379 40.5993673,15.8044335 40.5744016,13.7650247 L48.3138748,13.7650247 L48.4886371,11.7766009 C48.4886371,7.79975371 46.7410142,5.9387931 43.2457683,5.9387931 C39.8004546,5.9387931 37.8281371,8.05467983 37.8281371,12.7198276 C37.8281371,17.2065271 39.2761677,19.2459359 43.0210738,19.2459359 C45.2180857,19.2459359 48.0642146,18.6596059 48.0642146,18.6596059 L48.0142824,16.5947044 C48.0142824,16.5947044 45.392848,16.8241379 43.4205306,16.8241379 L43.4205306,16.8241379 L43.4205306,16.8241379 L43.4205306,16.8241379 Z M40.549436,11.6236453 C40.5744016,9.17635466 41.3982809,8.2331281 43.2457683,8.2331281 C45.0682891,8.2331281 45.8172705,9.07438422 45.8172705,11.6236453 L40.549436,11.6236453 L40.549436,11.6236453 L40.549436,11.6236453 Z M51.334766,24.7013547 L52.8077623,24.7013547 L52.8077623,18.8890394 C53.2571513,18.9910098 54.5553852,19.2204434 55.803687,19.2204434 C59.673424,19.2204434 61.1963525,17.3339902 61.1963525,12.4139163 C61.1963525,7.97820198 59.873152,5.96428569 56.7523972,5.96428569 C54.7551132,5.96428569 52.8077623,7.18793103 52.8077623,7.18793103 L52.8077623,6.21921181 L51.334766,6.21921181 L51.334766,24.7013547 L51.334766,24.7013547 L51.334766,24.7013547 Z M56.6026006,7.34088672 C58.5499524,7.34088672 59.6484575,8.69199509 59.6484575,12.4139163 C59.6484575,16.3397784 58.6498159,17.869335 55.7537556,17.869335 C54.5553852,17.869335 53.2321848,17.6399015 52.8077623,17.5634236 L52.8077623,8.48805422 C52.8077623,8.48805422 54.7301475,7.34088672 56.6026006,7.34088672 L56.6026006,7.34088672 L56.6026006,7.34088672 L56.6026006,7.34088672 Z M64.5418017,18.9655172 L66.0147988,18.9655172 L66.0147988,0.559852241 L64.5418017,0.559852241 L64.5418017,18.9655172 L64.5418017,18.9655172 L64.5418017,18.9655172 Z M78.4978197,10.0176109 C78.4978197,7.31539405 77.3493815,5.96428569 74.6280835,5.96428569 C72.530936,5.96428569 69.7846706,6.49963052 69.7846706,6.49963052 L69.8595693,7.72327586 C69.8595693,7.72327586 72.7805961,7.34088672 74.5781513,7.34088672 C76.1759776,7.34088672 77.0248234,8.08017241 77.0248234,10.0176109 L77.0248234,11.2157635 L72.7805961,11.6491379 C70.2590261,11.9040641 69.1105879,13.0257389 69.1105879,15.3710591 C69.1105879,17.9203202 70.333924,19.2204434 72.530936,19.2204434 C74.8777437,19.2204434 77.2245514,18.1752463 77.2245514,18.1752463 C77.8986349,18.9400247 78.8223786,19.1949508 80.0457146,19.1949508 L80.1206125,17.9713054 C79.2967333,17.869335 78.5727176,17.6144089 78.4978197,16.8496305 L78.4978197,10.0176109 L78.4978197,10.0176109 L78.4978197,10.0176109 Z M77.0248234,12.4139163 L77.0248234,17.0280788 C77.0248234,17.0280788 74.7529136,17.9203202 72.7306639,17.9203202 C71.3575313,17.9203202 70.6584821,16.9770936 70.6584821,15.3455665 C70.6584821,13.8160098 71.2826334,13.0002463 72.9553584,12.8472906 L77.0248234,12.4139163 L77.0248234,12.4139163 L77.0248234,12.4139163 Z M87.0112399,5.96428569 C83.2912995,5.96428569 81.843269,7.69778328 81.843269,12.362931 C81.843269,17.3849753 82.9417749,19.2204434 86.9862742,19.2204434 C88.0598137,19.2204434 90.2817913,18.914532 90.2817913,18.914532 L90.2318591,17.6144089 C90.2318591,17.6144089 88.2096103,17.8438423 87.2609001,17.8438423 C83.9903487,17.8438423 83.3911639,16.3652709 83.3911639,12.362931 C83.3911639,8.69199509 84.2649754,7.34088672 87.2609001,7.34088672 C88.2096103,7.34088672 90.1819278,7.59581284 90.1819278,7.59581284 L90.2568256,6.29568966 C90.2568256,6.29568966 88.0847802,5.96428569 87.0112399,5.96428569 L87.0112399,5.96428569 L87.0112399,5.96428569 L87.0112399,5.96428569 Z M97.4470454,17.8438423 C94.825611,17.8438423 93.976766,16.2378078 93.976766,13.2296798 L102.46522,13.2296798 L102.515152,12.0060345 C102.515152,7.72327586 100.817461,5.96428569 97.596842,5.96428569 C94.5509851,5.96428569 92.4538376,7.72327586 92.4538376,12.6433497 C92.4538376,16.9006158 93.5773093,19.1949508 97.2972497,19.2204434 C99.2446006,19.2204434 102.065764,18.8635468 102.065764,18.8635468 L102.015832,17.6144089 C102.015832,17.6144089 99.2695671,17.8438423 97.4470454,17.8438423 L97.4470454,17.8438423 L97.4470454,17.8438423 L97.4470454,17.8438423 Z M93.976766,11.9550492 C93.976766,8.56453198 95.3249322,7.28990147 97.596842,7.28990147 C99.9436498,7.28990147 101.01719,8.51354681 101.01719,11.9550492 L93.976766,11.9550492 L93.976766,11.9550492 L93.976766,11.9550492 Z" id="codeplace"></path>
                                    </g>
                                </g>
                            </g>
                        </g>
                    </g>
                </g>
            </g>
            <path d="M110.484375,7.84375 L110.611328,7.24804688 L112.037109,6.76953125 L112.183594,5.80273438 C112.300782,5.06054316 112.554686,4.37532866 112.945312,3.74707031 C113.335939,3.11881196 113.809568,2.61914248 114.366211,2.24804688 C114.922854,1.87695127 115.494138,1.69140625 116.080078,1.69140625 C116.379559,1.69140625 116.654621,1.70930972 116.905273,1.74511719 C117.155926,1.78092466 117.395181,1.84765576 117.623047,1.9453125 L117.183594,3.25390625 C117.001301,3.13671816 116.801108,3.0374353 116.583008,2.95605469 C116.364908,2.87467407 116.102866,2.83398438 115.796875,2.83398438 C115.217445,2.83398438 114.737307,3.08951567 114.356445,3.60058594 C113.975584,4.1116562 113.733073,4.80012588 113.628906,5.66601562 L113.492188,6.72070312 L116.080078,6.72070312 L115.953125,7.84375 L113.355469,7.84375 L111.958984,18.7226562 C111.796223,20.037767 111.42025,21.0794232 110.831055,21.8476562 C110.241859,22.6158893 109.488286,23.0032552 108.570312,23.0097656 C108.264321,23.0162761 107.959962,23.004883 107.657227,22.9755859 C107.354491,22.9462889 107.131511,22.9121096 106.988281,22.8730469 L107.378906,21.5644531 C107.483073,21.6100263 107.714191,21.6767574 108.072266,21.7646484 C108.43034,21.8525395 108.726561,21.8932292 108.960938,21.8867188 C109.377606,21.8867188 109.698241,21.6588564 109.922852,21.203125 C110.147462,20.7473936 110.315104,20.0931032 110.425781,19.2402344 L111.851562,7.84375 L110.484375,7.84375 Z M124.317383,7.18457031 C124.893558,7.54590024 125.331379,8.06998354 125.630859,8.75683594 C125.93034,9.44368833 126.080078,10.2656202 126.080078,11.2226562 C126.080078,12.3880267 125.844078,13.5078071 125.37207,14.5820312 C124.900063,15.6562554 124.242517,16.5270149 123.399414,17.1943359 C122.556311,17.861657 121.610682,18.1953125 120.5625,18.1953125 C119.735673,18.1953125 119.032555,18.0162778 118.453125,17.6582031 C117.873695,17.3001284 117.434246,16.7793003 117.134766,16.0957031 C116.835285,15.412106 116.685547,14.5885465 116.685547,13.625 C116.685547,12.4466087 116.923175,11.3203179 117.398438,10.2460938 C117.8737,9.17186963 118.532873,8.3027377 119.375977,7.63867188 C120.21908,6.97460605 121.164708,6.64257812 122.212891,6.64257812 C123.039718,6.64257812 123.741208,6.82324038 124.317383,7.18457031 L124.317383,7.18457031 Z M123.87793,8.56640625 C123.444985,7.92187178 122.802088,7.59960938 121.949219,7.59960938 C121.174475,7.59960938 120.503909,7.90234072 119.9375,8.5078125 C119.371091,9.11328428 118.943035,9.876623 118.65332,10.7978516 C118.363605,11.7190801 118.21875,12.6451776 118.21875,13.5761719 C118.21875,14.7480527 118.44173,15.651364 118.887695,16.2861328 C119.333661,16.9209016 119.979813,17.2382812 120.826172,17.2382812 C121.587894,17.2382812 122.248695,16.9355499 122.808594,16.3300781 C123.368492,15.7246063 123.79492,14.9612676 124.087891,14.0400391 C124.380861,13.1188105 124.527344,12.1992233 124.527344,11.28125 C124.527344,10.1158796 124.310875,9.21094072 123.87793,8.56640625 L123.87793,8.56640625 Z M128.599609,7.8046875 L128.736328,7.1015625 L130.757812,6.68164062 L131.109375,6.8671875 L130.982422,8.61523438 L130.865234,9.45507812 C131.034506,9.07096162 131.306313,8.66080947 131.680664,8.22460938 C132.055015,7.78840928 132.504229,7.41731924 133.02832,7.11132812 C133.552411,6.80533701 134.100909,6.65234375 134.673828,6.65234375 C134.999351,6.65234375 135.210937,6.69466104 135.308594,6.77929688 L134.986328,8.40039062 C134.810546,8.30924434 134.498049,8.26367188 134.048828,8.26367188 C133.651691,8.26367188 133.236656,8.36946509 132.803711,8.58105469 C132.370766,8.79264429 131.963869,9.10839634 131.583008,9.52832031 C131.202147,9.94824429 130.894532,10.4576793 130.660156,11.0566406 L129.791016,18 L128.345703,18 L129.595703,8.25390625 L128.599609,7.8046875 Z M141.319336,10.5341797 C141.771812,9.4241481 142.430985,8.49805059 143.296875,7.75585938 C144.162765,7.01366816 145.17838,6.64257812 146.34375,6.64257812 C146.701825,6.64257812 147.081053,6.686523 147.481445,6.77441406 C147.881838,6.86230513 148.218749,6.97460869 148.492188,7.11132812 L148.0625,8.625 C148.016927,8.5859373 147.948568,8.53385449 147.857422,8.46875 C147.570962,8.26692607 147.264976,8.10416729 146.939453,7.98046875 C146.613931,7.85677021 146.301434,7.79492188 146.001953,7.79492188 C145.23372,7.79492188 144.563154,8.03743247 143.990234,8.52246094 C143.417315,9.0074894 142.974611,9.68782114 142.662109,10.5634766 C142.349608,11.439132 142.193359,12.4433537 142.193359,13.5761719 C142.193359,14.7285214 142.401691,15.6041637 142.818359,16.203125 C143.235028,16.8020863 143.817705,17.1015625 144.566406,17.1015625 C144.937502,17.1015625 145.277668,17.0527349 145.586914,16.9550781 C145.89616,16.8574214 146.182616,16.7255868 146.446289,16.5595703 C146.709962,16.3935539 147.027342,16.1673191 147.398438,15.8808594 L147.701172,16.5253906 C147.323566,16.9485698 146.8418,17.3326806 146.255859,17.6777344 C145.669919,18.0227882 144.973311,18.1953125 144.166016,18.1953125 C143.430335,18.1953125 142.798831,18.019533 142.271484,17.6679688 C141.744138,17.3164045 141.340496,16.8102247 141.060547,16.1494141 C140.780598,15.4886035 140.640625,14.7057337 140.640625,13.8007812 C140.640625,12.7330676 140.86686,11.6442113 141.319336,10.5341797 L141.319336,10.5341797 Z M157.071289,7.18457031 C157.647464,7.54590024 158.085285,8.06998354 158.384766,8.75683594 C158.684246,9.44368833 158.833984,10.2656202 158.833984,11.2226562 C158.833984,12.3880267 158.597984,13.5078071 158.125977,14.5820312 C157.653969,15.6562554 156.996423,16.5270149 156.15332,17.1943359 C155.310217,17.861657 154.364589,18.1953125 153.316406,18.1953125 C152.489579,18.1953125 151.786461,18.0162778 151.207031,17.6582031 C150.627601,17.3001284 150.188153,16.7793003 149.888672,16.0957031 C149.589191,15.412106 149.439453,14.5885465 149.439453,13.625 C149.439453,12.4466087 149.677081,11.3203179 150.152344,10.2460938 C150.627607,9.17186963 151.28678,8.3027377 152.129883,7.63867188 C152.972986,6.97460605 153.918615,6.64257812 154.966797,6.64257812 C155.793624,6.64257812 156.495114,6.82324038 157.071289,7.18457031 L157.071289,7.18457031 Z M156.631836,8.56640625 C156.198891,7.92187178 155.555994,7.59960938 154.703125,7.59960938 C153.928382,7.59960938 153.257815,7.90234072 152.691406,8.5078125 C152.124997,9.11328428 151.696942,9.876623 151.407227,10.7978516 C151.117512,11.7190801 150.972656,12.6451776 150.972656,13.5761719 C150.972656,14.7480527 151.195636,15.651364 151.641602,16.2861328 C152.087567,16.9209016 152.73372,17.2382812 153.580078,17.2382812 C154.341801,17.2382812 155.002601,16.9355499 155.5625,16.3300781 C156.122399,15.7246063 156.548827,14.9612676 156.841797,14.0400391 C157.134767,13.1188105 157.28125,12.1992233 157.28125,11.28125 C157.28125,10.1158796 157.064781,9.21094072 156.631836,8.56640625 L156.631836,8.56640625 Z M168.624023,11.359375 C168.705404,10.7148405 168.746094,10.1321641 168.746094,9.61132812 C168.746094,9.15559668 168.705404,8.8040377 168.624023,8.55664062 C168.542643,8.30924355 168.405925,8.13346406 168.213867,8.02929688 C168.021809,7.92512969 167.753257,7.87304688 167.408203,7.87304688 C167.017576,7.87304688 166.584638,8.00162632 166.109375,8.25878906 C165.634112,8.51595181 165.166994,8.86100044 164.708008,9.29394531 C164.249021,9.72689019 163.847007,10.2005183 163.501953,10.7148438 L162.535156,18 L161.089844,18 L162.388672,8.21484375 L161.441406,7.75585938 L161.568359,7.05273438 L163.570312,6.64257812 L163.941406,6.83789062 L163.677734,9.38671875 C164.270185,8.59895439 164.957027,7.94466406 165.738281,7.42382812 C166.519535,6.90299219 167.287757,6.64257812 168.042969,6.64257812 C168.759118,6.64257812 169.294595,6.8476542 169.649414,7.2578125 C170.004234,7.6679708 170.194661,8.32226113 170.220703,9.22070312 C170.76107,8.47200146 171.379554,7.85514565 172.076172,7.37011719 C172.77279,6.88508872 173.466142,6.64257812 174.15625,6.64257812 C174.859379,6.64257812 175.411131,6.87532319 175.811523,7.34082031 C176.211916,7.80631743 176.412109,8.53710439 176.412109,9.53320312 C176.412109,9.85221514 176.382813,10.2119121 176.324219,10.6123047 C176.265625,11.0126973 176.177735,11.5644496 176.060547,12.2675781 L175.923828,13.0585938 L175.796875,13.8203125 C175.783854,13.9114588 175.743164,14.1507142 175.674805,14.5380859 C175.606445,14.9254577 175.551107,15.2818994 175.508789,15.6074219 C175.466471,15.9329443 175.438802,16.2161446 175.425781,16.4570312 L175.416016,16.6523438 C175.416016,16.9973976 175.49414,17.1699219 175.650391,17.1699219 C175.806641,17.1699219 175.9694,17.1162115 176.138672,17.0087891 C176.307944,16.9013667 176.516275,16.7239596 176.763672,16.4765625 L177.007812,16.90625 C176.929687,17.036459 176.788087,17.2024729 176.583008,17.4042969 C176.377929,17.6061208 176.12728,17.7884106 175.831055,17.9511719 C175.534829,18.1139331 175.227215,18.1953125 174.908203,18.1953125 C174.56966,18.1953125 174.319011,18.1057952 174.15625,17.9267578 C173.993489,17.7477205 173.91862,17.4661478 173.931641,17.0820312 C173.944662,16.7565088 173.980468,16.3821636 174.039062,15.9589844 C174.097657,15.5358052 174.179036,15.0052115 174.283203,14.3671875 C174.335287,14.0937486 174.384114,13.8007828 174.429688,13.4882812 L174.546875,12.8144531 C174.670574,12.0917933 174.766601,11.4879582 174.834961,11.0029297 C174.903321,10.5179012 174.9375,10.0572938 174.9375,9.62109375 C174.9375,9.1783832 174.8903,8.83170698 174.795898,8.58105469 C174.701497,8.33040239 174.559897,8.15299531 174.371094,8.04882812 C174.182291,7.94466094 173.931642,7.89257812 173.619141,7.89257812 C173.104815,7.89257812 172.530277,8.1383439 171.895508,8.62988281 C171.260739,9.12142173 170.6862,9.73176719 170.171875,10.4609375 C170.119791,11.0273466 170.00586,11.8964785 169.830078,13.0683594 L169.146484,18 L167.681641,18 L168.306641,13.5371094 C168.43685,12.7298137 168.542643,12.0039095 168.624023,11.359375 L168.624023,11.359375 Z M180.142578,23.078125 L178.726562,23.078125 L180.757812,8.06835938 L179.703125,7.67773438 L179.830078,7.05273438 L181.929688,6.64257812 L182.291016,6.83789062 L182.105469,8.47851562 C182.470054,7.96419014 182.932289,7.52962417 183.492188,7.17480469 C184.052086,6.81998521 184.664059,6.64257812 185.328125,6.64257812 C186.057295,6.64257812 186.670896,6.82161279 187.168945,7.1796875 C187.666995,7.53776221 188.038085,8.03417651 188.282227,8.66894531 C188.526368,9.30371411 188.648438,10.0377563 188.648438,10.8710938 C188.648438,11.9388074 188.397789,13.0439396 187.896484,14.1865234 C187.39518,15.3291073 186.675786,16.2828738 185.738281,17.0478516 C184.800777,17.8128293 183.710293,18.1953125 182.466797,18.1953125 C181.991534,18.1953125 181.451175,18.1139331 180.845703,17.9511719 L180.142578,23.078125 Z M181.001953,16.7695312 C181.418622,17.0820328 181.985022,17.2382812 182.701172,17.2382812 C183.612635,17.2382812 184.403642,16.9143913 185.074219,16.2666016 C185.744795,15.6188119 186.25423,14.8082731 186.602539,13.8349609 C186.950848,12.8616488 187.125,11.9095099 187.125,10.9785156 C187.125,9.94986465 186.94271,9.15722935 186.578125,8.60058594 C186.21354,8.04394253 185.718753,7.765625 185.09375,7.765625 C184.66406,7.765625 184.24577,7.86653545 183.838867,8.06835938 C183.431964,8.2701833 183.069012,8.52245942 182.75,8.82519531 C182.430988,9.1279312 182.170574,9.43554531 181.96875,9.74804688 L181.001953,16.7695312 Z M199.888672,17.0234375 C199.830078,17.1276047 199.709636,17.2740876 199.527344,17.4628906 C199.345051,17.6516937 199.117189,17.8209628 198.84375,17.9707031 C198.570311,18.1204435 198.283856,18.1953125 197.984375,18.1953125 C197.229163,18.1953125 196.851562,17.8112018 196.851562,17.0429688 L196.861328,16.8574219 L196.958984,16.1347656 L196.978516,16.0078125 C196.535805,16.6067738 196.006839,17.1210916 195.391602,17.5507812 C194.776364,17.9804709 194.139977,18.1953125 193.482422,18.1953125 C192.427729,18.1953125 191.646487,17.8160845 191.138672,17.0576172 C190.630857,16.2991499 190.376953,15.2721419 190.376953,13.9765625 C190.376953,12.9153593 190.630857,11.8134823 191.138672,10.6708984 C191.646487,9.5283146 192.375646,8.57129292 193.326172,7.79980469 C194.276697,7.02831646 195.376947,6.64257812 196.626953,6.64257812 C196.926434,6.64257812 197.248696,6.67675747 197.59375,6.74511719 C197.938804,6.8134769 198.257811,6.89973906 198.550781,7.00390625 L198.570312,6.984375 L199.664062,6.65234375 L198.355469,16.3105469 C198.342448,16.427735 198.335938,16.5123695 198.335938,16.5644531 C198.335938,16.7727875 198.378255,16.9257808 198.462891,17.0234375 C198.547526,17.1210942 198.638671,17.1699219 198.736328,17.1699219 C198.860027,17.1699219 198.983723,17.125977 199.107422,17.0380859 C199.23112,16.9501949 199.403645,16.8020844 199.625,16.59375 L199.888672,17.0234375 Z M198.023438,8.06835938 C197.815103,7.91210859 197.569337,7.79654985 197.286133,7.72167969 C197.002928,7.64680952 196.708335,7.609375 196.402344,7.609375 C195.47786,7.609375 194.673832,7.92675464 193.990234,8.56152344 C193.306637,9.19629224 192.787437,9.9938103 192.432617,10.9541016 C192.077798,11.9143928 191.900391,12.8600214 191.900391,13.7910156 C191.900391,14.8326875 192.050129,15.6415987 192.349609,16.2177734 C192.64909,16.7939482 193.11458,17.0820312 193.746094,17.0820312 C194.182294,17.0820312 194.621743,16.9534518 195.064453,16.6962891 C195.507164,16.4391263 195.90755,16.1266294 196.265625,15.7587891 C196.6237,15.3909487 196.919921,15.0247414 197.154297,14.6601562 L198.023438,8.06835938 Z M202.662109,7.75585938 L202.798828,7.05273438 L204.800781,6.64257812 L205.171875,6.83789062 L204.898438,9.38671875 C205.484378,8.60546484 206.17122,7.9528021 206.958984,7.42871094 C207.746749,6.90461978 208.51497,6.64257812 209.263672,6.64257812 C209.992842,6.64257812 210.546222,6.86393008 210.923828,7.30664062 C211.301434,7.74935117 211.490234,8.48827607 211.490234,9.5234375 C211.490234,9.87500176 211.456055,10.2786436 211.387695,10.734375 C211.319336,11.1901064 211.223308,11.7434863 211.099609,12.3945312 L210.972656,13.0683594 L210.865234,13.6542969 C210.754557,14.2727896 210.663412,14.8050108 210.591797,15.2509766 C210.520182,15.6969423 210.474609,16.1022117 210.455078,16.4667969 L210.445312,16.6523438 C210.445312,16.815105 210.464844,16.9420568 210.503906,17.0332031 C210.542969,17.1243494 210.601562,17.1699219 210.679688,17.1699219 C210.940105,17.1699219 211.259113,16.9941424 211.636719,16.6425781 L211.880859,17.0722656 C211.822265,17.1764328 211.693686,17.3196605 211.495117,17.5019531 C211.296548,17.6842457 211.055665,17.8470045 210.772461,17.9902344 C210.489256,18.1334643 210.197918,18.2050781 209.898438,18.2050781 C209.234372,18.2050781 208.902344,17.8600295 208.902344,17.1699219 C208.902344,16.8574203 208.938151,16.4733096 209.009766,16.0175781 C209.081381,15.5618467 209.182291,14.9987013 209.3125,14.328125 L209.458984,13.5371094 L209.576172,12.9121094 C209.712891,12.1764286 209.818685,11.5530625 209.893555,11.0419922 C209.968425,10.5309219 210.005859,10.0540387 210.005859,9.61132812 C210.005859,9.16210713 209.961915,8.81217573 209.874023,8.56152344 C209.786132,8.31087114 209.644532,8.13346406 209.449219,8.02929688 C209.253905,7.92512969 208.980471,7.87304688 208.628906,7.87304688 C208.238279,7.87304688 207.805341,8.00162632 207.330078,8.25878906 C206.854815,8.51595181 206.387698,8.86262803 205.928711,9.29882812 C205.469724,9.73502822 205.06771,10.2102839 204.722656,10.7246094 L203.755859,18 L202.310547,18 L203.619141,8.21484375 L202.662109,7.75585938 Z M214.898438,7.7265625 L215.025391,7.09179688 L217.466797,6.68164063 L217.857422,6.88671875 L216.480469,16.4570312 C216.467448,16.5611984 216.460938,16.6328123 216.460938,16.671875 C216.460938,16.8346362 216.490234,16.9583329 216.548828,17.0429688 C216.607422,17.1276046 216.679036,17.1699219 216.763672,17.1699219 C216.913412,17.1699219 217.068033,17.1178391 217.227539,17.0136719 C217.387045,16.9095047 217.583983,16.73047 217.818359,16.4765625 L218.072266,16.90625 C217.981119,17.0429694 217.837892,17.210611 217.642578,17.4091797 C217.447265,17.6077484 217.204754,17.7884106 216.915039,17.9511719 C216.625324,18.1139331 216.31771,18.1953125 215.992188,18.1953125 C215.673175,18.1953125 215.417644,18.1155607 215.225586,17.9560547 C215.033528,17.7965487 214.9375,17.5410174 214.9375,17.1894531 C214.9375,16.955077 214.992838,16.4423868 215.103516,15.6513672 C215.214193,14.8603476 215.376952,13.7552154 215.591797,12.3359375 C215.839194,10.7408774 216.04427,9.3346415 216.207031,8.1171875 L214.898438,7.7265625 Z M216.739258,2.77050781 C216.84668,2.58496001 216.985025,2.43684951 217.154297,2.32617188 C217.323569,2.21549424 217.492838,2.16015625 217.662109,2.16015625 C217.935548,2.16015625 218.153645,2.24316323 218.316406,2.40917969 C218.479167,2.57519614 218.560547,2.78841016 218.560547,3.04882812 C218.560547,3.27669385 218.508464,3.48828027 218.404297,3.68359375 C218.30013,3.87890723 218.161785,4.03352808 217.989258,4.14746094 C217.816731,4.2613938 217.629558,4.31835938 217.427734,4.31835938 C217.193358,4.31835938 216.993165,4.22884204 216.827148,4.04980469 C216.661132,3.87076733 216.578125,3.64778779 216.578125,3.38085938 C216.578125,3.1595041 216.631835,2.95605562 216.739258,2.77050781 L216.739258,2.77050781 Z M227.554688,6.95996094 C227.964846,7.17155054 228.27246,7.46126118 228.477539,7.82910156 C228.682618,8.19694194 228.785156,8.61523203 228.785156,9.08398438 C228.785156,10.0214891 228.376632,10.8141244 227.55957,11.4619141 C226.742509,12.1097038 225.79037,12.5963525 224.703125,12.921875 C223.61588,13.2473975 222.678389,13.4199218 221.890625,13.4394531 C221.877604,13.6347666 221.871094,13.7812495 221.871094,13.8789062 C221.871094,14.4127631 221.954101,14.9238257 222.120117,15.4121094 C222.286134,15.9003931 222.554686,16.3040349 222.925781,16.6230469 C223.296877,16.9420589 223.775388,17.1015625 224.361328,17.1015625 C224.934248,17.1015625 225.529945,16.9713555 226.148438,16.7109375 C226.76693,16.4505195 227.343096,16.0533881 227.876953,15.5195312 L228.238281,16.1835938 C228.029947,16.4700535 227.722333,16.7695297 227.31543,17.0820312 C226.908527,17.3945328 226.431643,17.6582021 225.884766,17.8730469 C225.337888,18.0878917 224.771487,18.1953125 224.185547,18.1953125 C223.313147,18.1953125 222.58887,17.9951192 222.012695,17.5947266 C221.436521,17.1943339 221.013348,16.668623 220.743164,16.0175781 C220.47298,15.3665332 220.337891,14.6601601 220.337891,13.8984375 C220.337891,12.6549417 220.588539,11.4749405 221.089844,10.3583984 C221.591148,9.2418564 222.27799,8.34342788 223.150391,7.66308594 C224.022791,6.98274399 224.986323,6.64257812 226.041016,6.64257812 C226.639977,6.64257812 227.144529,6.74837134 227.554688,6.95996094 L227.554688,6.95996094 Z M226.856445,7.98046875 C226.579751,7.70051943 226.194013,7.56054688 225.699219,7.56054688 C225.009111,7.56054688 224.390628,7.82096094 223.84375,8.34179688 C223.296872,8.86263281 222.859051,9.51041279 222.530273,10.2851562 C222.201496,11.0598997 222.001302,11.8183557 221.929688,12.5605469 C222.710941,12.5345051 223.516597,12.3831394 224.34668,12.1064453 C225.176762,11.8297512 225.871742,11.4407577 226.431641,10.9394531 C226.991539,10.4381485 227.271484,9.86198242 227.271484,9.2109375 C227.271484,8.67057021 227.133139,8.26041807 226.856445,7.98046875 L226.856445,7.98046875 Z M231.509766,16.9013672 C232.00456,17.0543627 232.528643,17.1308594 233.082031,17.1308594 C233.752608,17.1308594 234.31087,17.0055351 234.756836,16.7548828 C235.202802,16.5042305 235.425781,16.0664094 235.425781,15.4414062 C235.425781,15.0833315 235.326498,14.7529312 235.12793,14.4501953 C234.929361,14.1474594 234.709637,13.8968109 234.46875,13.6982422 C234.227863,13.4996735 233.889325,13.2441422 233.453125,12.9316406 C232.906247,12.5540346 232.413088,12.0950548 231.973633,11.5546875 C231.534177,11.0143202 231.314453,10.3958368 231.314453,9.69921875 C231.314453,9.08723652 231.483722,8.55013252 231.822266,8.08789062 C232.160809,7.62564873 232.614906,7.26920698 233.18457,7.01855469 C233.754235,6.76790239 234.37109,6.64257812 235.035156,6.64257812 C235.516929,6.64257812 236.008461,6.686523 236.509766,6.77441406 C237.01107,6.86230513 237.352864,6.95182246 237.535156,7.04296875 L237.242188,8.36132812 C237.196614,8.28971318 237.06478,8.19694067 236.84668,8.08300781 C236.62858,7.96907495 236.355145,7.86979209 236.026367,7.78515625 C235.69759,7.70052041 235.344403,7.65820312 234.966797,7.65820312 C234.315752,7.65820312 233.791669,7.79003774 233.394531,8.05371094 C232.997394,8.31738413 232.776042,8.70963281 232.730469,9.23046875 C232.704427,9.59505391 232.772786,9.9319646 232.935547,10.2412109 C233.098308,10.5504573 233.303384,10.8222645 233.550781,11.0566406 C233.798178,11.2910168 234.104165,11.5416653 234.46875,11.8085938 C234.976565,12.1927103 235.375324,12.5149727 235.665039,12.7753906 C235.954754,13.0358086 236.220051,13.3710917 236.460938,13.78125 C236.701824,14.1914083 236.822266,14.6503881 236.822266,15.1582031 C236.822266,15.7897167 236.649741,16.3349586 236.304688,16.7939453 C235.959634,17.252932 235.495771,17.6012358 234.913086,17.8388672 C234.330401,18.0764986 233.690759,18.1953125 232.994141,18.1953125 C232.4082,18.1953125 231.827151,18.1318366 231.250977,18.0048828 C230.674802,17.8779291 230.298829,17.7363289 230.123047,17.5800781 L230.386719,16.3984375 C230.640626,16.5807301 231.014971,16.7483716 231.509766,16.9013672 L231.509766,16.9013672 Z" id="for-companies" fill="#EFEFEF"></path>
        </g>
    </g>
</svg>