<?xml version="1.0" encoding="UTF-8" standalone="no"?>
<svg width="206px" height="25px" viewBox="0 0 206 25" version="1.1" xmlns="http://www.w3.org/2000/svg" xmlns:xlink="http://www.w3.org/1999/xlink">
    <!-- Generator: Sketch 3.8.1 (29687) - http://www.bohemiancoding.com/sketch -->
    <title>Group 15</title>
    <desc>Created with Sketch.</desc>
    <defs></defs>
    <g id="Page-1" stroke="none" stroke-width="1" fill="none" fill-rule="evenodd">
        <g id="Landing-Writers" transform="translate(-21.000000, -19.000000)" fill="#FFFFFF">
            <g id="Group-15" transform="translate(21.000000, 19.000000)">
                <path d="M111.484375,8.41514969 L111.611328,7.81944656 L113.037109,7.34093094 L113.183594,6.37413406 C113.300782,5.63194285 113.554686,4.94672835 113.945312,4.31847 C114.335939,3.69021165 114.809568,3.19054217 115.366211,2.81944656 C115.922854,2.44835096 116.494138,2.26280594 117.080078,2.26280594 C117.379559,2.26280594 117.654621,2.28070941 117.905273,2.31651688 C118.155926,2.35232435 118.395181,2.41905545 118.623047,2.51671219 L118.183594,3.82530594 C118.001301,3.70811785 117.801108,3.60883499 117.583008,3.52745438 C117.364908,3.44607376 117.102866,3.40538406 116.796875,3.40538406 C116.217445,3.40538406 115.737307,3.66091536 115.356445,4.17198563 C114.975584,4.68305589 114.733073,5.37152557 114.628906,6.23741531 L114.492188,7.29210281 L117.080078,7.29210281 L116.953125,8.41514969 L114.355469,8.41514969 L112.958984,19.2940559 C112.796223,20.6091667 112.42025,21.6508229 111.831055,22.4190559 C111.241859,23.1872889 110.488286,23.5746549 109.570312,23.5811653 C109.264321,23.5876758 108.959962,23.5762826 108.657227,23.5469856 C108.354491,23.5176886 108.131511,23.4835093 107.988281,23.4444466 L108.378906,22.1358528 C108.483073,22.181426 108.714191,22.2481571 109.072266,22.3360481 C109.43034,22.4239392 109.726561,22.4646289 109.960938,22.4581184 C110.377606,22.4581184 110.698241,22.2302561 110.922852,21.7745247 C111.147462,21.3187932 111.315104,20.6645029 111.425781,19.8116341 L112.851562,8.41514969 L111.484375,8.41514969 Z M125.317383,7.75597 C125.893558,8.11729993 126.331379,8.64138323 126.630859,9.32823563 C126.93034,10.015088 127.080078,10.8370199 127.080078,11.7940559 C127.080078,12.9594263 126.844078,14.0792068 126.37207,15.1534309 C125.900063,16.2276551 125.242517,17.0984146 124.399414,17.7657356 C123.556311,18.4330567 122.610682,18.7667122 121.5625,18.7667122 C120.735673,18.7667122 120.032555,18.5876775 119.453125,18.2296028 C118.873695,17.8715281 118.434246,17.3507 118.134766,16.6671028 C117.835285,15.9835056 117.685547,15.1599462 117.685547,14.1963997 C117.685547,13.0180084 117.923175,11.8917176 118.398438,10.8174934 C118.8737,9.74326932 119.532873,8.87413738 120.375977,8.21007156 C121.21908,7.54600574 122.164708,7.21397781 123.212891,7.21397781 C124.039718,7.21397781 124.741208,7.39464007 125.317383,7.75597 L125.317383,7.75597 Z M124.87793,9.13780594 C124.444985,8.49327147 123.802088,8.17100906 122.949219,8.17100906 C122.174475,8.17100906 121.503909,8.47374041 120.9375,9.07921219 C120.371091,9.68468397 119.943035,10.4480227 119.65332,11.3692513 C119.363605,12.2904798 119.21875,13.2165773 119.21875,14.1475716 C119.21875,15.3194524 119.44173,16.2227637 119.887695,16.8575325 C120.333661,17.4923013 120.979813,17.8096809 121.826172,17.8096809 C122.587894,17.8096809 123.248695,17.5069496 123.808594,16.9014778 C124.368492,16.296006 124.79492,15.5326673 125.087891,14.6114388 C125.380861,13.6902102 125.527344,12.770623 125.527344,11.8526497 C125.527344,10.6872793 125.310875,9.78234041 124.87793,9.13780594 L124.87793,9.13780594 Z M129.599609,8.37608719 L129.736328,7.67296219 L131.757812,7.25304031 L132.109375,7.43858719 L131.982422,9.18663406 L131.865234,10.0264778 C132.034506,9.64236131 132.306313,9.23220916 132.680664,8.79600906 C133.055015,8.35980897 133.504229,7.98871893 134.02832,7.68272781 C134.552411,7.3767367 135.100909,7.22374344 135.673828,7.22374344 C135.999351,7.22374344 136.210937,7.26606072 136.308594,7.35069656 L135.986328,8.97179031 C135.810546,8.88064402 135.498049,8.83507156 135.048828,8.83507156 C134.651691,8.83507156 134.236656,8.94086478 133.803711,9.15245438 C133.370766,9.36404398 132.963869,9.67979603 132.583008,10.09972 C132.202147,10.519644 131.894532,11.029079 131.660156,11.6280403 L130.791016,18.5713997 L129.345703,18.5713997 L130.595703,8.82530594 L129.599609,8.37608719 Z M150.654297,18.7569466 L150.3125,15.4268684 L149.833984,10.7198372 L149.765625,9.41124344 L149.316406,10.7296028 L146.923828,15.7491341 L145.517578,18.6495247 L144.238281,18.7667122 L143.691406,15.4171028 L142.685547,9.04014969 C142.639974,8.79275262 142.578125,8.61534554 142.5,8.50792313 C142.421875,8.40050071 142.317709,8.34679031 142.1875,8.34679031 C142.070312,8.34679031 141.962891,8.3760869 141.865234,8.43468094 C141.767578,8.49327498 141.679688,8.55512332 141.601562,8.62022781 C141.523437,8.68533231 141.471354,8.72764959 141.445312,8.74718094 L141.210938,8.25889969 C141.282552,8.1547325 141.401366,8.02289788 141.567383,7.86339188 C141.733399,7.70388587 141.941731,7.55903055 142.192383,7.42882156 C142.443035,7.29861258 142.708332,7.23350906 142.988281,7.23350906 C143.274741,7.23350906 143.497721,7.28396429 143.657227,7.38487625 C143.816733,7.48578821 143.933919,7.62901595 144.008789,7.81456375 C144.083659,8.00011155 144.14388,8.25238768 144.189453,8.57139969 L144.951172,15.5342903 L145.136719,17.3897591 L145.898438,15.7393684 L149.541016,7.31163406 L150.849609,7.31163406 L151.572266,15.5342903 L151.748047,17.3897591 L153.066406,15.4854622 C153.326824,15.1273875 153.631183,14.6098145 153.979492,13.9327278 C154.327801,13.2556411 154.638671,12.5232265 154.912109,11.7354622 C155.185548,10.9476978 155.338542,10.2217936 155.371094,9.55772781 C155.377604,9.37543524 155.366211,9.21104886 155.336914,9.06456375 C155.307617,8.91807864 155.260417,8.74718192 155.195312,8.55186844 C155.123698,8.33702361 155.087891,8.17752 155.087891,8.07335281 C155.087891,7.79991395 155.151367,7.5915827 155.27832,7.44835281 C155.405274,7.30512293 155.576171,7.23350906 155.791016,7.23350906 C156.461592,7.23350906 156.796875,7.87152352 156.796875,9.14757156 C156.796875,9.96788817 156.533206,10.9493237 156.005859,12.0919075 C155.478513,13.2344913 154.837243,14.3754305 154.082031,15.5147591 L152.070312,18.6495247 L150.654297,18.7569466 Z M159.0625,8.37608719 L159.199219,7.67296219 L161.220703,7.25304031 L161.572266,7.43858719 L161.445312,9.18663406 L161.328125,10.0264778 C161.497397,9.64236131 161.769204,9.23220916 162.143555,8.79600906 C162.517906,8.35980897 162.96712,7.98871893 163.491211,7.68272781 C164.015302,7.3767367 164.563799,7.22374344 165.136719,7.22374344 C165.462241,7.22374344 165.673828,7.26606072 165.771484,7.35069656 L165.449219,8.97179031 C165.273437,8.88064402 164.96094,8.83507156 164.511719,8.83507156 C164.114581,8.83507156 163.699546,8.94086478 163.266602,9.15245438 C162.833657,9.36404398 162.42676,9.67979603 162.045898,10.09972 C161.665037,10.519644 161.357423,11.029079 161.123047,11.6280403 L160.253906,18.5713997 L158.808594,18.5713997 L160.058594,8.82530594 L159.0625,8.37608719 Z M167.265625,8.29796219 L167.392578,7.66319656 L169.833984,7.25304031 L170.224609,7.45811844 L168.847656,17.0284309 C168.834635,17.1325981 168.828125,17.204212 168.828125,17.2432747 C168.828125,17.4060359 168.857422,17.5297326 168.916016,17.6143684 C168.97461,17.6990043 169.046224,17.7413216 169.130859,17.7413216 C169.2806,17.7413216 169.435221,17.6892388 169.594727,17.5850716 C169.754233,17.4809044 169.951171,17.3018697 170.185547,17.0479622 L170.439453,17.4776497 C170.348307,17.6143691 170.205079,17.7820107 170.009766,17.9805794 C169.814452,18.1791481 169.571942,18.3598103 169.282227,18.5225716 C168.992512,18.6853328 168.684897,18.7667122 168.359375,18.7667122 C168.040363,18.7667122 167.784832,18.6869604 167.592773,18.5274544 C167.400715,18.3679484 167.304688,18.1124171 167.304688,17.7608528 C167.304688,17.5264766 167.360025,17.0137865 167.470703,16.2227669 C167.581381,15.4317473 167.74414,14.3266151 167.958984,12.9073372 C168.206381,11.3122771 168.411458,9.90604119 168.574219,8.68858719 L167.265625,8.29796219 Z M169.106445,3.3419075 C169.213868,3.1563597 169.352213,3.0082492 169.521484,2.89757156 C169.690756,2.78689393 169.860025,2.73155594 170.029297,2.73155594 C170.302736,2.73155594 170.520833,2.81456292 170.683594,2.98057938 C170.846355,3.14659583 170.927734,3.35980984 170.927734,3.62022781 C170.927734,3.84809354 170.875652,4.05967996 170.771484,4.25499344 C170.667317,4.45030692 170.528972,4.60492776 170.356445,4.71886063 C170.183918,4.83279349 169.996746,4.88975906 169.794922,4.88975906 C169.560546,4.88975906 169.360352,4.80024173 169.194336,4.62120438 C169.028319,4.44216702 168.945312,4.21918748 168.945312,3.95225906 C168.945312,3.73090379 168.999023,3.5274553 169.106445,3.3419075 L169.106445,3.3419075 Z M174.472656,8.39561844 L173.251953,8.39561844 L173.398438,7.71202469 L174.648438,7.34093094 C174.798178,7.12608611 174.969075,6.76964437 175.161133,6.271595 C175.353191,5.77354564 175.533853,5.26411063 175.703125,4.74327469 L176.425781,4.74327469 L176.083984,7.30186844 L178.867188,7.30186844 L178.720703,8.39561844 L175.957031,8.39561844 L175.048828,15.2120247 C174.951171,15.9607263 174.902344,16.4685338 174.902344,16.7354622 C174.902344,16.9763488 174.930013,17.1635214 174.985352,17.2969856 C175.04069,17.4304498 175.136718,17.5264775 175.273438,17.5850716 C175.410157,17.6436656 175.608723,17.6729622 175.869141,17.6729622 C176.14909,17.6729622 176.494139,17.5753069 176.904297,17.3799934 C177.314455,17.18468 177.636718,16.9958798 177.871094,16.8135872 L178.017578,17.4385872 C177.874348,17.6143693 177.638348,17.8064247 177.30957,18.0147591 C176.980793,18.2230934 176.616213,18.4005005 176.21582,18.5469856 C175.815428,18.6934707 175.445965,18.7667122 175.107422,18.7667122 C173.968093,18.7667122 173.398438,18.2230978 173.398438,17.1358528 C173.398438,16.8949662 173.430989,16.5010899 173.496094,15.9542122 L174.472656,8.39561844 Z M187.060547,7.53136063 C187.470705,7.74295023 187.778319,8.03266087 187.983398,8.40050125 C188.188478,8.76834163 188.291016,9.18663172 188.291016,9.65538406 C188.291016,10.5928888 187.882491,11.3855241 187.06543,12.0333138 C186.248368,12.6811034 185.296229,13.1677522 184.208984,13.4932747 C183.121739,13.8187971 182.184249,13.9913215 181.396484,14.0108528 C181.383463,14.2061663 181.376953,14.3526492 181.376953,14.4503059 C181.376953,14.9841628 181.45996,15.4952254 181.625977,15.9835091 C181.791993,16.4717928 182.060545,16.8754346 182.431641,17.1944466 C182.802736,17.5134586 183.281247,17.6729622 183.867188,17.6729622 C184.440107,17.6729622 185.035804,17.5427552 185.654297,17.2823372 C186.27279,17.0219192 186.848956,16.6247878 187.382812,16.0909309 L187.744141,16.7549934 C187.535806,17.0414532 187.228192,17.3409294 186.821289,17.6534309 C186.414386,17.9659325 185.937503,18.2296017 185.390625,18.4444466 C184.843747,18.6592914 184.277347,18.7667122 183.691406,18.7667122 C182.819006,18.7667122 182.094729,18.5665189 181.518555,18.1661263 C180.94238,17.7657336 180.519207,17.2400227 180.249023,16.5889778 C179.97884,15.9379329 179.84375,15.2315597 179.84375,14.4698372 C179.84375,13.2263414 180.094399,12.0463402 180.595703,10.9297981 C181.097008,9.81325609 181.78385,8.91482757 182.65625,8.23448563 C183.52865,7.55414368 184.492182,7.21397781 185.546875,7.21397781 C186.145836,7.21397781 186.650389,7.31977103 187.060547,7.53136063 L187.060547,7.53136063 Z M186.362305,8.55186844 C186.085611,8.27191912 185.699872,8.13194656 185.205078,8.13194656 C184.514971,8.13194656 183.896487,8.39236063 183.349609,8.91319656 C182.802732,9.4340325 182.36491,10.0818125 182.036133,10.8565559 C181.707355,11.6312994 181.507162,12.3897554 181.435547,13.1319466 C182.216801,13.1059048 183.022457,12.9545391 183.852539,12.677845 C184.682621,12.4011509 185.377601,12.0121574 185.9375,11.5108528 C186.497399,11.0095482 186.777344,10.4333821 186.777344,9.78233719 C186.777344,9.2419699 186.638999,8.83181776 186.362305,8.55186844 L186.362305,8.55186844 Z M190.810547,8.37608719 L190.947266,7.67296219 L192.96875,7.25304031 L193.320312,7.43858719 L193.193359,9.18663406 L193.076172,10.0264778 C193.245444,9.64236131 193.517251,9.23220916 193.891602,8.79600906 C194.265952,8.35980897 194.715167,7.98871893 195.239258,7.68272781 C195.763349,7.3767367 196.311846,7.22374344 196.884766,7.22374344 C197.210288,7.22374344 197.421875,7.26606072 197.519531,7.35069656 L197.197266,8.97179031 C197.021483,8.88064402 196.708987,8.83507156 196.259766,8.83507156 C195.862628,8.83507156 195.447593,8.94086478 195.014648,9.15245438 C194.581704,9.36404398 194.174807,9.67979603 193.793945,10.09972 C193.413084,10.519644 193.10547,11.029079 192.871094,11.6280403 L192.001953,18.5713997 L190.556641,18.5713997 L191.806641,8.82530594 L190.810547,8.37608719 Z M199.179688,17.4727669 C199.674482,17.6257624 200.198565,17.7022591 200.751953,17.7022591 C201.422529,17.7022591 201.980792,17.5769348 202.426758,17.3262825 C202.872724,17.0756302 203.095703,16.6378091 203.095703,16.0128059 C203.095703,15.6547312 202.99642,15.3243309 202.797852,15.021595 C202.599283,14.7188591 202.379558,14.4682106 202.138672,14.2696419 C201.897785,14.0710732 201.559247,13.8155419 201.123047,13.5030403 C200.576169,13.1254343 200.08301,12.6664545 199.643555,12.1260872 C199.204099,11.5857199 198.984375,10.9672365 198.984375,10.2706184 C198.984375,9.65863621 199.153644,9.12153221 199.492188,8.65929031 C199.830731,8.19704842 200.284828,7.84060667 200.854492,7.58995438 C201.424156,7.33930208 202.041012,7.21397781 202.705078,7.21397781 C203.186851,7.21397781 203.678383,7.25792269 204.179688,7.34581375 C204.680992,7.43370482 205.022786,7.52322215 205.205078,7.61436844 L204.912109,8.93272781 C204.866536,8.86111287 204.734702,8.76834036 204.516602,8.6544075 C204.298502,8.54047464 204.025067,8.44119178 203.696289,8.35655594 C203.367511,8.2719201 203.014325,8.22960281 202.636719,8.22960281 C201.985674,8.22960281 201.461591,8.36143743 201.064453,8.62511063 C200.667316,8.88878382 200.445964,9.2810325 200.400391,9.80186844 C200.374349,10.1664536 200.442708,10.5033643 200.605469,10.8126106 C200.76823,11.121857 200.973306,11.3936641 201.220703,11.6280403 C201.4681,11.8624165 201.774087,12.113065 202.138672,12.3799934 C202.646487,12.7641099 203.045246,13.0863723 203.334961,13.3467903 C203.624676,13.6072083 203.889973,13.9424914 204.130859,14.3526497 C204.371746,14.762808 204.492188,15.2217878 204.492188,15.7296028 C204.492188,16.3611164 204.319663,16.9063583 203.974609,17.365345 C203.629556,17.8243317 203.165693,18.1726355 202.583008,18.4102669 C202.000323,18.6478983 201.360681,18.7667122 200.664062,18.7667122 C200.078122,18.7667122 199.497073,18.7032363 198.920898,18.5762825 C198.344724,18.4493287 197.968751,18.3077286 197.792969,18.1514778 L198.056641,16.9698372 C198.310548,17.1521298 198.684893,17.3197713 199.179688,17.4727669 L199.179688,17.4727669 Z" id="for-writers" fill-opacity="0.547780797"></path>
                <g id="download">
                    <g id="codeplace">
                        <g id="Boostrap3-grid-system-layouts">
                            <g id="Desktop">
                                <path d="M5.47214601,5.9387931 C1.75220645,5.9387931 0.25424368,7.85073888 0.25424368,12.4139163 C0.25424368,17.3084975 1.57744416,19.2459359 5.42221465,19.2459359 C6.69548207,19.2459359 9.21705293,18.787069 9.21705293,18.787069 L9.1421542,16.5692118 C9.1421542,16.5692118 7.1698376,16.7731527 6.22112739,16.7731527 C3.52479508,16.7731527 3.0005082,15.6769704 3.0005082,12.4139163 C3.0005082,9.48226603 3.59969297,8.41157638 6.19616171,8.41157638 C7.14487107,8.41157638 9.11718852,8.61551724 9.11718852,8.61551724 L9.21705293,6.42315267 C9.21705293,6.42315267 6.79534648,5.9387931 5.47214601,5.9387931 L5.47214601,5.9387931 L5.47214601,5.9387931 Z M16.6818994,5.9387931 C12.51257,5.9387931 11.1144717,8.38608371 11.1144717,12.5158867 C11.1144717,16.7476601 12.4127065,19.2459359 16.6818994,19.2459359 C20.9760589,19.2459359 22.2493263,16.7476601 22.2493263,12.5158867 C22.2493263,8.38608371 20.851228,5.9387931 16.6818994,5.9387931 L16.6818994,5.9387931 L16.6818994,5.9387931 Z M16.6818994,16.9006158 C14.3600574,16.9006158 13.8607362,15.4730296 13.8607362,12.5158867 C13.8607362,9.55874388 14.4848875,8.28411328 16.6818994,8.28411328 C18.8789114,8.28411328 19.5030618,9.55874388 19.5030618,12.5158867 C19.5030618,15.4730296 19.0037415,16.9006158 16.6818994,16.9006158 L16.6818994,16.9006158 L16.6818994,16.9006158 Z M35.1318048,0.916748793 L32.410506,0.916748793 L32.410506,6.27019707 C32.2607094,6.2447044 30.5630186,5.9387931 29.564377,5.9387931 C25.9942333,5.9387931 24.3714404,8.00369457 24.3714404,12.6178572 C24.3714404,17.537931 25.8943689,19.2459359 29.0900224,19.2459359 C30.6129508,19.2459359 32.4354717,18.3027094 32.4354717,18.3027094 L32.4354717,18.9655172 L35.1318048,18.9655172 L35.1318048,0.916748793 L35.1318048,0.916748793 Z M29.5144448,16.7731527 C27.9915164,16.7731527 27.1177049,15.8809113 27.1177049,12.6178572 C27.1177049,9.71169948 27.9166185,8.33509853 29.764105,8.33509853 C30.8126788,8.33509853 32.2607094,8.56453198 32.410506,8.59002466 L32.410506,16.1358374 C32.410506,16.1358374 30.9375097,16.7731527 29.5144448,16.7731527 L29.5144448,16.7731527 L29.5144448,16.7731527 Z M43.4205306,16.8241379 C41.3483487,16.8241379 40.5993673,15.8044335 40.5744016,13.7650247 L48.3138748,13.7650247 L48.4886371,11.7766009 C48.4886371,7.79975371 46.7410142,5.9387931 43.2457683,5.9387931 C39.8004546,5.9387931 37.8281371,8.05467983 37.8281371,12.7198276 C37.8281371,17.2065271 39.2761677,19.2459359 43.0210738,19.2459359 C45.2180857,19.2459359 48.0642146,18.6596059 48.0642146,18.6596059 L48.0142824,16.5947044 C48.0142824,16.5947044 45.392848,16.8241379 43.4205306,16.8241379 L43.4205306,16.8241379 L43.4205306,16.8241379 Z M40.549436,11.6236453 C40.5744016,9.17635466 41.3982809,8.2331281 43.2457683,8.2331281 C45.0682891,8.2331281 45.8172705,9.07438422 45.8172705,11.6236453 L40.549436,11.6236453 L40.549436,11.6236453 Z M51.334766,24.7013547 L52.8077623,24.7013547 L52.8077623,18.8890394 C53.2571513,18.9910098 54.5553852,19.2204434 55.803687,19.2204434 C59.673424,19.2204434 61.1963525,17.3339902 61.1963525,12.4139163 C61.1963525,7.97820198 59.873152,5.96428569 56.7523972,5.96428569 C54.7551132,5.96428569 52.8077623,7.18793103 52.8077623,7.18793103 L52.8077623,6.21921181 L51.334766,6.21921181 L51.334766,24.7013547 L51.334766,24.7013547 Z M56.6026006,7.34088672 C58.5499524,7.34088672 59.6484575,8.69199509 59.6484575,12.4139163 C59.6484575,16.3397784 58.6498159,17.869335 55.7537556,17.869335 C54.5553852,17.869335 53.2321848,17.6399015 52.8077623,17.5634236 L52.8077623,8.48805422 C52.8077623,8.48805422 54.7301475,7.34088672 56.6026006,7.34088672 L56.6026006,7.34088672 L56.6026006,7.34088672 Z M64.5418017,18.9655172 L66.0147988,18.9655172 L66.0147988,0.559852241 L64.5418017,0.559852241 L64.5418017,18.9655172 L64.5418017,18.9655172 Z M78.4978197,10.0176109 C78.4978197,7.31539405 77.3493815,5.96428569 74.6280835,5.96428569 C72.530936,5.96428569 69.7846706,6.49963052 69.7846706,6.49963052 L69.8595693,7.72327586 C69.8595693,7.72327586 72.7805961,7.34088672 74.5781513,7.34088672 C76.1759776,7.34088672 77.0248234,8.08017241 77.0248234,10.0176109 L77.0248234,11.2157635 L72.7805961,11.6491379 C70.2590261,11.9040641 69.1105879,13.0257389 69.1105879,15.3710591 C69.1105879,17.9203202 70.333924,19.2204434 72.530936,19.2204434 C74.8777437,19.2204434 77.2245514,18.1752463 77.2245514,18.1752463 C77.8986349,18.9400247 78.8223786,19.1949508 80.0457146,19.1949508 L80.1206125,17.9713054 C79.2967333,17.869335 78.5727176,17.6144089 78.4978197,16.8496305 L78.4978197,10.0176109 L78.4978197,10.0176109 Z M77.0248234,12.4139163 L77.0248234,17.0280788 C77.0248234,17.0280788 74.7529136,17.9203202 72.7306639,17.9203202 C71.3575313,17.9203202 70.6584821,16.9770936 70.6584821,15.3455665 C70.6584821,13.8160098 71.2826334,13.0002463 72.9553584,12.8472906 L77.0248234,12.4139163 L77.0248234,12.4139163 Z M87.0112399,5.96428569 C83.2912995,5.96428569 81.843269,7.69778328 81.843269,12.362931 C81.843269,17.3849753 82.9417749,19.2204434 86.9862742,19.2204434 C88.0598137,19.2204434 90.2817913,18.914532 90.2817913,18.914532 L90.2318591,17.6144089 C90.2318591,17.6144089 88.2096103,17.8438423 87.2609001,17.8438423 C83.9903487,17.8438423 83.3911639,16.3652709 83.3911639,12.362931 C83.3911639,8.69199509 84.2649754,7.34088672 87.2609001,7.34088672 C88.2096103,7.34088672 90.1819278,7.59581284 90.1819278,7.59581284 L90.2568256,6.29568966 C90.2568256,6.29568966 88.0847802,5.96428569 87.0112399,5.96428569 L87.0112399,5.96428569 L87.0112399,5.96428569 Z M97.4470454,17.8438423 C94.825611,17.8438423 93.976766,16.2378078 93.976766,13.2296798 L102.46522,13.2296798 L102.515152,12.0060345 C102.515152,7.72327586 100.817461,5.96428569 97.596842,5.96428569 C94.5509851,5.96428569 92.4538376,7.72327586 92.4538376,12.6433497 C92.4538376,16.9006158 93.5773093,19.1949508 97.2972497,19.2204434 C99.2446006,19.2204434 102.065764,18.8635468 102.065764,18.8635468 L102.015832,17.6144089 C102.015832,17.6144089 99.2695671,17.8438423 97.4470454,17.8438423 L97.4470454,17.8438423 L97.4470454,17.8438423 Z M93.976766,11.9550492 C93.976766,8.56453198 95.3249322,7.28990147 97.596842,7.28990147 C99.9436498,7.28990147 101.01719,8.51354681 101.01719,11.9550492 L93.976766,11.9550492 L93.976766,11.9550492 Z" id="codeplace"></path>
                            </g>
                        </g>
                    </g>
                </g>
            </g>
        </g>
    </g>
</svg>