<svg xmlns="http://www.w3.org/2000/svg" viewBox="0 0 457.22 279.65"><defs><style>.cls-1{fill:#fff}.cls-2{fill:#3fa9f5}.cls-3{fill:#d4f5ff}</style></defs><title>Asset 1</title><g id="Layer_2" data-name="Layer 2"><g id="Layer_1-2" data-name="Layer 1"><path class="cls-1" d="M23.18 10.77h4v239.29h-4z"/><path class="cls-2" d="M107.25 192.32c1.86-19.72 4.56-39.55 5.52-59.32 1.13-23.45 32.72-30.71 51-33.27 32.26-4.52 66.51-2.67 96-18.65a31.57 31.57 0 0 1 6.76-2.86 298.61 298.61 0 0 1 30-7.13c9.47-1.61 18.66-1.09 28.12-1.79a179.89 179.89 0 0 0 19-2.65c20-3.58 39.8-8.35 59.42-13.55 13.42-3.55 28.27-6.52 40.77-12.81 2.07-1 .25-4.15-1.82-3.11-11.25 5.65-24.62 8.34-36.7 11.59-18.01 4.86-36.22 9.23-54.58 12.9-7.53 1.49-15.11 2.91-22.75 3.73-7.33.78-14.65.08-22 .8C294.48 67.32 283.15 70 272 73c-3.91 1.06-7.94 1.87-11.58 3.68-7.51 3.72-14.56 7.25-22.71 9.53-22.24 6.22-45.21 6.81-68 9.22-20.22 2.14-57.75 9-60.41 35.28-2.08 20.49-3.68 41.1-5.62 61.62-.22 2.31 3.38 2.29 3.6 0z"/><path class="cls-1" d="M25.18 246.82h417.8v4H25.18zM18.64 14.85L25.28 0l6.64 14.85H18.64zM442.98 241.9l14.24 6.92-14.24 6.92V241.9zM1.78 66.15v2.59h6.79v2H1.78v2.6H0v-7.19zM8.57 65.19H0v-3.84a2.47 2.47 0 0 1 .3-1.11 3 3 0 0 1 .7-.89 3.12 3.12 0 0 1 .92-.58 2.76 2.76 0 0 1 1-.21 3 3 0 0 1 .76.1 2.93 2.93 0 0 1 .69.28 2.61 2.61 0 0 1 1 1l3.17-1.87v2.23l-2.72 1.63v1.28h2.75zm-4.46-2v-1.8a.74.74 0 0 0-.33-.6 1.36 1.36 0 0 0-.85-.25 1.19 1.19 0 0 0-.84.29.85.85 0 0 0-.31.62v1.74zM0 55v-1.81l8.52-3.11v2l-1.91.66v2.66l1.91.65v2zm5.3-1.92l-3 1 3 1zM8.57 49.24H0v-5.79h1.78v3.82h1.83v-3.14h1.6v3.14h3.36zM8.57 42.41H0v-5.78h1.78v3.82h1.83V37.3h1.6v3.14h3.36zM8.57 35.58H0v-2h8.57zM4.24 32.47a4.29 4.29 0 0 1-1.53-.29 4.16 4.16 0 0 1-1.36-.84A4.27 4.27 0 0 1 .37 30 4.19 4.19 0 0 1 0 28.2a4 4 0 0 1 .52-2.08 3.34 3.34 0 0 1 1.34-1.31l1.06 1.51a1.78 1.78 0 0 0-.56.37 2 2 0 0 0-.55 1 2.84 2.84 0 0 0-.05.54 2 2 0 0 0 .23 1 2.15 2.15 0 0 0 .59.7 2.44 2.44 0 0 0 .82.41 3.31 3.31 0 0 0 .92.13 3 3 0 0 0 1-.16 2.6 2.6 0 0 0 .83-.45 2.18 2.18 0 0 0 .57-.71 2 2 0 0 0 .21-.93 2.4 2.4 0 0 0-.07-.55 2.2 2.2 0 0 0-.2-.54 1.92 1.92 0 0 0-.36-.47 1.69 1.69 0 0 0-.55-.35l.95-1.61a2.51 2.51 0 0 1 .84.57 3.52 3.52 0 0 1 .62.87 4.79 4.79 0 0 1 .52 2.12A3.82 3.82 0 0 1 8.26 30a4.29 4.29 0 0 1-1 1.33 4.58 4.58 0 0 1-1.42.86 4.43 4.43 0 0 1-1.6.28zM411.25 264.18h-2.59V271h-2v-6.79h-2.6v-1.73h7.16zM412.21 271v-8.52h2V271zM422.53 271v-5.1l-1.85 3.71h-1.06l-1.85-3.71v5.1h-2v-8.52H418l2.21 4.45 2.22-4.45h2.12V271zM432.12 269.25V271h-6v-8.52H432v1.73h-3.9v1.66h3.36v1.6h-3.36v1.81z"/><path class="cls-3" d="M28.6 201.56c11.91 1.11 25.08-.2 36.09-5 4.67-2 8.79-4.85 13.82-6.07a31.4 31.4 0 0 1 15.58.23c6.68 1.79 11.57 5.85 18.8 5.23 8.14-.69 14-4.95 21.32-7.76 6.24-2.4 13.34-3.14 19.92-3.88 7.18-.81 14.41-1.31 21.64-1.49 5.16-.13 10.46.62 15.58.2 13.3-1.09 26.58-6.76 39-11.21 5.68-2 10.92-4.06 16.91-4.68 20.6-2.13 41.29-3.46 61.9-5.55q67.45-6.83 134.28-18.49c2.28-.4 1.31-3.87-1-3.47q-61.22 10.67-123.1 17.38c-22.76 2.43-45.56 4.17-68.35 6.25-18 1.65-34.2 10.61-51.76 14.81-11.38 2.73-23.57 1-35.22 1.83-12.67.92-25.48 2-36.82 8-4.92 2.6-10.73 4.67-16.36 4.67-4.19 0-7.29-2.06-11-3.58a35.82 35.82 0 0 0-25.46-.98c-5.24 1.84-9.78 5.07-15.07 6.81a68.37 68.37 0 0 1-15 3 85.06 85.06 0 0 1-15.7.19c-2.31-.21-2.29 3.39 0 3.6zM36.92 277.48H24.68v-12.24h12.24zm-11.23-1h10.23v-10.24H25.68z"/><path class="cls-1" d="M46.53 268.45l2.35 4.27 2.38-4.27h1.48l-3.18 5.47v3h-1.35v-3.02l-3.16-5.45zM55.33 277.09a3.26 3.26 0 0 1-1.34-.26 3.07 3.07 0 0 1-1.66-1.75 3.49 3.49 0 0 1 0-2.48 3.08 3.08 0 0 1 .65-1 3.2 3.2 0 0 1 1-.71 3.28 3.28 0 0 1 3.67.71 3.08 3.08 0 0 1 .65 1 3.5 3.5 0 0 1 0 2.48 3.07 3.07 0 0 1-.65 1 3.2 3.2 0 0 1-1 .71 3.24 3.24 0 0 1-1.32.3zm-1.87-3.24a2.38 2.38 0 0 0 .14.84 2.1 2.1 0 0 0 .4.67 1.85 1.85 0 0 0 .59.44 1.76 1.76 0 0 0 1.48 0 1.81 1.81 0 0 0 .59-.45 2.15 2.15 0 0 0 .4-.67 2.5 2.5 0 0 0 0-1.67 2.14 2.14 0 0 0-.4-.68 1.82 1.82 0 0 0-.59-.45 1.7 1.7 0 0 0-.74-.16 1.63 1.63 0 0 0-.73.17 1.88 1.88 0 0 0-.59.46 2.25 2.25 0 0 0-.4.68 2.31 2.31 0 0 0-.16.82zM61.66 277.09a1.78 1.78 0 0 1-1.49-.64 3.06 3.06 0 0 1-.5-1.91v-3.84H61v3.58q0 1.69 1.2 1.69a1.85 1.85 0 0 0 1.07-.35 2.23 2.23 0 0 0 .78-1v-3.92h1.32v4.72a.52.52 0 0 0 .08.32.38.38 0 0 0 .28.11V277H65.14a1 1 0 0 1-.61-.2.65.65 0 0 1-.26-.51v-.62a2.81 2.81 0 0 1-1.09 1 3.12 3.12 0 0 1-1.52.42zM70.57 271.84a3 3 0 0 0-1.36.35 1.86 1.86 0 0 0-.85.94V277H67v-6.3h1.22v1.4a2.88 2.88 0 0 1 .85-1 2.05 2.05 0 0 1 1.12-.43h.34zM81.07 274.78a2 2 0 0 1-.21.92 2.11 2.11 0 0 1-.56.69 2.54 2.54 0 0 1-.83.43 3.4 3.4 0 0 1-1 .15h-4.1v-8.52h4.39a1.69 1.69 0 0 1 .8.19 2 2 0 0 1 .61.5 2.28 2.28 0 0 1 .39.7 2.34 2.34 0 0 1 .14.79 2.29 2.29 0 0 1-.32 1.17 1.94 1.94 0 0 1-.91.81 2.17 2.17 0 0 1 1.16.79 2.25 2.25 0 0 1 .44 1.38zm-5.35-5.16v2.51h2.47a1.1 1.1 0 0 0 .46-.1 1.28 1.28 0 0 0 .37-.26 1.15 1.15 0 0 0 .25-.39 1.37 1.37 0 0 0 .09-.5A1.32 1.32 0 0 0 79 270a1 1 0 0 0-.79-.35zm4 4.91a1.41 1.41 0 0 0-.09-.5 1.44 1.44 0 0 0-.24-.42 1.14 1.14 0 0 0-.37-.29 1 1 0 0 0-.47-.11h-2.84v2.6h2.72a1.18 1.18 0 0 0 .49-.1 1.25 1.25 0 0 0 .66-.68 1.29 1.29 0 0 0 .11-.5zM82.31 268.22h1.32v6.95a.78.78 0 0 0 .18.55.65.65 0 0 0 .5.2 1.17 1.17 0 0 0 .31 0l.33-.11.19 1a3.08 3.08 0 0 1-.68.21 3.72 3.72 0 0 1-.71.08 1.45 1.45 0 0 1-1.06-.37 1.42 1.42 0 0 1-.38-1.06zM88.73 277.09a3.26 3.26 0 0 1-1.34-.26 3.07 3.07 0 0 1-1.66-1.75 3.49 3.49 0 0 1 0-2.48 3.08 3.08 0 0 1 .65-1 3.2 3.2 0 0 1 1-.71 3.28 3.28 0 0 1 3.67.71 3.08 3.08 0 0 1 .65 1 3.5 3.5 0 0 1 0 2.48 3.07 3.07 0 0 1-.65 1 3.2 3.2 0 0 1-1 .71 3.24 3.24 0 0 1-1.32.3zm-1.87-3.24a2.38 2.38 0 0 0 .14.84 2.1 2.1 0 0 0 .4.67 1.85 1.85 0 0 0 .59.44 1.76 1.76 0 0 0 1.48 0 1.81 1.81 0 0 0 .59-.45 2.15 2.15 0 0 0 .4-.67 2.5 2.5 0 0 0 0-1.67 2.14 2.14 0 0 0-.4-.68 1.82 1.82 0 0 0-.59-.45 1.7 1.7 0 0 0-.74-.16 1.63 1.63 0 0 0-.73.17 1.88 1.88 0 0 0-.59.46 2.25 2.25 0 0 0-.4.68 2.31 2.31 0 0 0-.15.82zM95.62 277a2.61 2.61 0 0 1-1.16-.26 2.77 2.77 0 0 1-.91-.7 3.3 3.3 0 0 1-.59-1 3.5 3.5 0 0 1-.21-1.21 3.69 3.69 0 0 1 .22-1.27 3.21 3.21 0 0 1 .6-1 2.87 2.87 0 0 1 .92-.7 2.68 2.68 0 0 1 1.18-.26 2.43 2.43 0 0 1 1.33.4 3 3 0 0 1 .94.94v-1.24h1.16v6.1a2.79 2.79 0 0 1-.25 1.21 2.56 2.56 0 0 1-.7.89 3.15 3.15 0 0 1-1.06.56 4.39 4.39 0 0 1-1.32.19 3.78 3.78 0 0 1-1.77-.35 3.27 3.27 0 0 1-1.16-1l.74-.7a2.31 2.31 0 0 0 .93.77 2.86 2.86 0 0 0 1.22.26 2.74 2.74 0 0 0 .77-.11 1.8 1.8 0 0 0 .64-.34 1.64 1.64 0 0 0 .44-.58 2 2 0 0 0 .16-.83v-1a2.29 2.29 0 0 1-.92.89 2.6 2.6 0 0 1-1.2.34zm.43-1.07a1.65 1.65 0 0 0 .58-.1 2 2 0 0 0 .51-.28 2 2 0 0 0 .4-.4 1.44 1.44 0 0 0 .24-.47v-1.64a2.21 2.21 0 0 0-.75-1 2.13 2.13 0 0 0-.52-.28 1.63 1.63 0 0 0-1.33.08 1.87 1.87 0 0 0-.58.49 2.34 2.34 0 0 0-.37.69 2.43 2.43 0 0 0-.13.79 2.16 2.16 0 0 0 .15.81 2 2 0 0 0 1 1.11 1.79 1.79 0 0 0 .8.27z"/><path class="cls-2" d="M137.29 277.58h-12.44v-12.44h12.43zm-11.23-1.2h10v-10h-10z"/><path class="cls-1" d="M146.8 268.45l2.35 4.27 2.38-4.27H153l-3.18 5.47v3h-1.34v-3.02l-3.16-5.45zM155.6 277.09a3.26 3.26 0 0 1-1.34-.26 3.07 3.07 0 0 1-1.66-1.75 3.49 3.49 0 0 1 0-2.48 3.08 3.08 0 0 1 .65-1 3.2 3.2 0 0 1 1-.71 3.28 3.28 0 0 1 3.67.71 3.08 3.08 0 0 1 .65 1 3.5 3.5 0 0 1 0 2.48 3.07 3.07 0 0 1-.65 1 3.2 3.2 0 0 1-1 .71 3.24 3.24 0 0 1-1.32.3zm-1.87-3.24a2.38 2.38 0 0 0 .14.84 2.1 2.1 0 0 0 .4.67 1.85 1.85 0 0 0 .59.44 1.76 1.76 0 0 0 1.48 0 1.81 1.81 0 0 0 .59-.45 2.15 2.15 0 0 0 .4-.67 2.5 2.5 0 0 0 0-1.67 2.14 2.14 0 0 0-.4-.68 1.82 1.82 0 0 0-.59-.45 1.7 1.7 0 0 0-.74-.16 1.63 1.63 0 0 0-.73.17 1.88 1.88 0 0 0-.59.46 2.25 2.25 0 0 0-.4.68 2.31 2.31 0 0 0-.15.82zM161.93 277.09a1.78 1.78 0 0 1-1.49-.64 3.06 3.06 0 0 1-.5-1.91v-3.84h1.32v3.58q0 1.69 1.2 1.69a1.85 1.85 0 0 0 1.07-.35 2.23 2.23 0 0 0 .78-1v-3.92h1.32v4.72a.52.52 0 0 0 .08.32.38.38 0 0 0 .28.11V277H165.4a1 1 0 0 1-.61-.2.65.65 0 0 1-.26-.51v-.62a2.81 2.81 0 0 1-1.09 1 3.12 3.12 0 0 1-1.51.42zM170.84 271.84a3 3 0 0 0-1.36.35 1.86 1.86 0 0 0-.85.94V277h-1.32v-6.3h1.22v1.4a2.88 2.88 0 0 1 .85-1 2.05 2.05 0 0 1 1.12-.43h.34zM181.34 274.78a2 2 0 0 1-.21.92 2.11 2.11 0 0 1-.56.69 2.54 2.54 0 0 1-.83.43 3.4 3.4 0 0 1-1 .15h-4.07v-8.52H179a1.69 1.69 0 0 1 .8.19 2 2 0 0 1 .61.5 2.28 2.28 0 0 1 .39.7 2.34 2.34 0 0 1 .14.79 2.29 2.29 0 0 1-.32 1.17 1.94 1.94 0 0 1-.91.81 2.17 2.17 0 0 1 1.16.79 2.25 2.25 0 0 1 .47 1.38zm-5.34-5.16v2.51h2.47a1.1 1.1 0 0 0 .46-.1 1.28 1.28 0 0 0 .37-.26 1.15 1.15 0 0 0 .25-.39 1.37 1.37 0 0 0 .09-.5 1.32 1.32 0 0 0-.31-.91 1 1 0 0 0-.79-.35zm4 4.91a1.41 1.41 0 0 0-.09-.5 1.44 1.44 0 0 0-.24-.42 1.14 1.14 0 0 0-.37-.29 1 1 0 0 0-.47-.11H176v2.6h2.72a1.18 1.18 0 0 0 .49-.1 1.25 1.25 0 0 0 .66-.68 1.29 1.29 0 0 0 .13-.5zM182.59 268.22h1.32v6.95a.78.78 0 0 0 .18.55.65.65 0 0 0 .5.2 1.17 1.17 0 0 0 .31 0l.33-.11.19 1a3.08 3.08 0 0 1-.68.21 3.72 3.72 0 0 1-.71.08 1.45 1.45 0 0 1-1.06-.37 1.42 1.42 0 0 1-.38-1.06zM189 277.09a3.26 3.26 0 0 1-1.34-.26 3.07 3.07 0 0 1-1.66-1.75 3.49 3.49 0 0 1 0-2.48 3.08 3.08 0 0 1 .65-1 3.2 3.2 0 0 1 1-.71 3.28 3.28 0 0 1 3.67.71 3.08 3.08 0 0 1 .65 1 3.5 3.5 0 0 1 0 2.48 3.07 3.07 0 0 1-.65 1 3.2 3.2 0 0 1-1 .71 3.24 3.24 0 0 1-1.32.3zm-1.87-3.24a2.38 2.38 0 0 0 .14.84 2.1 2.1 0 0 0 .4.67 1.85 1.85 0 0 0 .59.44 1.76 1.76 0 0 0 1.48 0 1.81 1.81 0 0 0 .59-.45 2.15 2.15 0 0 0 .4-.67 2.5 2.5 0 0 0 0-1.67 2.14 2.14 0 0 0-.4-.68 1.82 1.82 0 0 0-.59-.45 1.7 1.7 0 0 0-.74-.16 1.63 1.63 0 0 0-.73.17 1.88 1.88 0 0 0-.59.46 2.25 2.25 0 0 0-.4.68 2.31 2.31 0 0 0-.15.82zM195.89 277a2.61 2.61 0 0 1-1.16-.26 2.77 2.77 0 0 1-.91-.7 3.3 3.3 0 0 1-.59-1 3.5 3.5 0 0 1-.21-1.21 3.69 3.69 0 0 1 .22-1.27 3.21 3.21 0 0 1 .6-1 2.87 2.87 0 0 1 .92-.7 2.68 2.68 0 0 1 1.18-.26 2.43 2.43 0 0 1 1.33.36 3 3 0 0 1 .94.94v-1.2h1.16v6.1a2.79 2.79 0 0 1-.25 1.21 2.56 2.56 0 0 1-.7.89 3.15 3.15 0 0 1-1.06.56 4.39 4.39 0 0 1-1.32.19 3.78 3.78 0 0 1-1.73-.35 3.27 3.27 0 0 1-1.16-1l.74-.7a2.31 2.31 0 0 0 .93.77 2.86 2.86 0 0 0 1.22.26 2.74 2.74 0 0 0 .77-.11 1.8 1.8 0 0 0 .64-.34 1.64 1.64 0 0 0 .44-.58 2 2 0 0 0 .16-.83v-1a2.29 2.29 0 0 1-.92.89 2.6 2.6 0 0 1-1.24.34zm.43-1.07a1.65 1.65 0 0 0 .58-.1 2 2 0 0 0 .51-.28 2 2 0 0 0 .4-.4 1.44 1.44 0 0 0 .24-.47v-1.64a2.21 2.21 0 0 0-.75-1 2.13 2.13 0 0 0-.52-.28 1.63 1.63 0 0 0-1.33.08 1.87 1.87 0 0 0-.58.49 2.34 2.34 0 0 0-.37.69 2.43 2.43 0 0 0-.13.79 2.16 2.16 0 0 0 .15.81 2 2 0 0 0 1 1.11 1.79 1.79 0 0 0 .81.27zM211.42 270.7h1.26L210 277h-1.09l-1.16-2.92-1.13 2.92h-1.09l-2.65-6.28h1.26l2 5 .91-2.33-1.05-2.68h1.08l.72 2 .71-2h1.08l-1.08 2.66.91 2.33zM213.56 269.67v-1.45h1.32v1.45zm0 7.31v-6.28h1.32v6.3zM220 276.65a6.53 6.53 0 0 1-.7.27 2.94 2.94 0 0 1-.95.15 2 2 0 0 1-.59-.08 1.44 1.44 0 0 1-.49-.25 1.13 1.13 0 0 1-.33-.44 1.6 1.6 0 0 1-.12-.65v-3.92H216v-1h.83v-2.06h1.32v2.06h1.37v1h-1.37v3.5a.65.65 0 0 0 .21.49.71.71 0 0 0 .46.15 1.47 1.47 0 0 0 .53-.1l.37-.16zM226.49 277h-1.32v-3.52a2.16 2.16 0 0 0-.31-1.28 1 1 0 0 0-.88-.41 1.5 1.5 0 0 0-.55.11 2 2 0 0 0-.52.31 2.33 2.33 0 0 0-.44.47 2 2 0 0 0-.29.59V277h-1.32v-8.76h1.32V272a2.59 2.59 0 0 1 1-1 2.63 2.63 0 0 1 1.35-.36 2 2 0 0 1 1 .21 1.69 1.69 0 0 1 .61.56 2.25 2.25 0 0 1 .32.81 5.15 5.15 0 0 1 .09 1zM230.62 272.65a4.45 4.45 0 0 1 .28-1.53 4.23 4.23 0 0 1 .81-1.37 4.09 4.09 0 0 1 1.3-1 4 4 0 0 1 1.74-.37 3.69 3.69 0 0 1 2 .52 3.36 3.36 0 0 1 1.25 1.34l-1.06.71a2.41 2.41 0 0 0-.43-.65 2.1 2.1 0 0 0-.55-.42 2.38 2.38 0 0 0-.62-.22 3.13 3.13 0 0 0-.62-.07 2.45 2.45 0 0 0-1.18.27 2.62 2.62 0 0 0-.85.71 3.2 3.2 0 0 0-.52 1 3.65 3.65 0 0 0-.17 1.1 3.45 3.45 0 0 0 .2 1.19 3.23 3.23 0 0 0 .57 1 2.8 2.8 0 0 0 .87.69 2.39 2.39 0 0 0 1.1.26 2.79 2.79 0 0 0 .64-.08 2.41 2.41 0 0 0 .64-.25 2.55 2.55 0 0 0 .56-.44 2.19 2.19 0 0 0 .43-.64l1.12.64a2.6 2.6 0 0 1-.58.85 3.66 3.66 0 0 1-.84.62 4.28 4.28 0 0 1-1 .38 4.17 4.17 0 0 1-1 .13 3.53 3.53 0 0 1-1.64-.38 4.32 4.32 0 0 1-1.28-1 4.63 4.63 0 0 1-.84-1.4 4.45 4.45 0 0 1-.33-1.59zM242 277.09a3.26 3.26 0 0 1-1.34-.26 3.07 3.07 0 0 1-1.66-1.75 3.49 3.49 0 0 1 0-2.48 3.08 3.08 0 0 1 .65-1 3.2 3.2 0 0 1 1-.71 3.28 3.28 0 0 1 3.67.71 3.08 3.08 0 0 1 .65 1 3.5 3.5 0 0 1 0 2.48 3.07 3.07 0 0 1-.65 1 3.2 3.2 0 0 1-1 .71 3.24 3.24 0 0 1-1.32.3zm-1.87-3.24a2.38 2.38 0 0 0 .14.84 2.1 2.1 0 0 0 .4.67 1.85 1.85 0 0 0 .59.44 1.76 1.76 0 0 0 1.48 0 1.81 1.81 0 0 0 .59-.45 2.15 2.15 0 0 0 .4-.67 2.5 2.5 0 0 0 0-1.67 2.14 2.14 0 0 0-.4-.68 1.82 1.82 0 0 0-.59-.45 1.7 1.7 0 0 0-.74-.16 1.63 1.63 0 0 0-.73.17 1.88 1.88 0 0 0-.59.46 2.25 2.25 0 0 0-.4.68 2.31 2.31 0 0 0-.13.82zM249 277.09a2.69 2.69 0 0 1-1.18-.26 2.93 2.93 0 0 1-.94-.7 3.23 3.23 0 0 1-.62-1 3.79 3.79 0 0 1 0-2.52 3.28 3.28 0 0 1 .59-1 2.84 2.84 0 0 1 .89-.7 2.59 2.59 0 0 1 2.45.11 2.67 2.67 0 0 1 .9.93v-3.67h1.32v7.2a.52.52 0 0 0 .08.32.38.38 0 0 0 .28.11V277h-.54a1 1 0 0 1-.65-.2.72.72 0 0 1-.28-.53v-.47a2.51 2.51 0 0 1-.95.92 2.68 2.68 0 0 1-1.35.37zm.32-1.13a1.81 1.81 0 0 0 .58-.1 2 2 0 0 0 .53-.26 1.87 1.87 0 0 0 .41-.4 1.43 1.43 0 0 0 .25-.49v-1.64a2 2 0 0 0-.31-.55 2.18 2.18 0 0 0-.45-.43 2.07 2.07 0 0 0-.53-.28 1.77 1.77 0 0 0-.57-.1 1.5 1.5 0 0 0-.73.18 1.87 1.87 0 0 0-.57.48 2.36 2.36 0 0 0-.38.68 2.31 2.31 0 0 0-.14.79 2.21 2.21 0 0 0 .15.82 2.13 2.13 0 0 0 .41.67 2 2 0 0 0 .61.46 1.66 1.66 0 0 0 .73.21zM256.91 277.09a3.33 3.33 0 0 1-1.33-.26 3.09 3.09 0 0 1-1-.7 3.17 3.17 0 0 1-.66-1 3.34 3.34 0 0 1-.23-1.25 3.39 3.39 0 0 1 .23-1.25 3.22 3.22 0 0 1 .66-1 3.05 3.05 0 0 1 1-.71 3.38 3.38 0 0 1 1.34-.26 3.23 3.23 0 0 1 1.33.26 3.18 3.18 0 0 1 1 .7 3 3 0 0 1 .64 1 3.38 3.38 0 0 1 .22 1.22v.48h-5a2.13 2.13 0 0 0 .2.76 2 2 0 0 0 .42.58 1.82 1.82 0 0 0 .59.38 1.84 1.84 0 0 0 .69.13 2.1 2.1 0 0 0 .52-.07 1.83 1.83 0 0 0 .47-.19 1.68 1.68 0 0 0 .38-.31 1.45 1.45 0 0 0 .26-.4l1.13.32a2.61 2.61 0 0 1-1.07 1.16 3.33 3.33 0 0 1-1.79.41zm1.91-3.73a2.11 2.11 0 0 0-.2-.73 1.88 1.88 0 0 0-.41-.57 1.84 1.84 0 0 0-.59-.37 1.91 1.91 0 0 0-.71-.13 1.88 1.88 0 0 0-1.28.5 1.8 1.8 0 0 0-.41.57 2.2 2.2 0 0 0-.19.73zM264.77 277.09a2.46 2.46 0 0 1-1.33-.36 2.68 2.68 0 0 1-.91-.94v3.73h-1.32v-8.82h1.16v1.13a2.74 2.74 0 0 1 .93-.9 2.49 2.49 0 0 1 1.29-.34 2.67 2.67 0 0 1 1.19.26 3 3 0 0 1 .94.71 3.27 3.27 0 0 1 .62 1 3.46 3.46 0 0 1 .22 1.24 3.89 3.89 0 0 1-.2 1.28 3.17 3.17 0 0 1-.58 1 2.8 2.8 0 0 1-.88.7 2.44 2.44 0 0 1-1.13.31zm-.43-1.13a1.61 1.61 0 0 0 .76-.18 1.89 1.89 0 0 0 .59-.48 2.22 2.22 0 0 0 .38-.68 2.42 2.42 0 0 0 .13-.79 2.21 2.21 0 0 0-.15-.82 2.19 2.19 0 0 0-.41-.67 1.89 1.89 0 0 0-.62-.46 1.83 1.83 0 0 0-.78-.17 1.61 1.61 0 0 0-.53.1 2.13 2.13 0 0 0-.52.26 2.06 2.06 0 0 0-.42.39 1.31 1.31 0 0 0-.25.49v1.64a2.4 2.4 0 0 0 .31.54 2.32 2.32 0 0 0 .43.43 2.07 2.07 0 0 0 .51.29 1.53 1.53 0 0 0 .57.15zM268.76 268.22h1.32v6.95a.78.78 0 0 0 .18.55.65.65 0 0 0 .5.2 1.17 1.17 0 0 0 .31 0l.33-.11.19 1a3.08 3.08 0 0 1-.68.21 3.72 3.72 0 0 1-.71.08 1.45 1.45 0 0 1-1.06-.37 1.42 1.42 0 0 1-.38-1.06zM274 277.09a2.34 2.34 0 0 1-.85-.15 2 2 0 0 1-.67-.41 1.94 1.94 0 0 1-.44-.62 1.87 1.87 0 0 1-.16-.78 1.68 1.68 0 0 1 .19-.8 1.87 1.87 0 0 1 .55-.62 2.65 2.65 0 0 1 .84-.41 3.78 3.78 0 0 1 1.07-.14 4.94 4.94 0 0 1 .88.08 4.42 4.42 0 0 1 .78.21V273a1.46 1.46 0 0 0-.4-1.09 1.56 1.56 0 0 0-1.14-.39 2.76 2.76 0 0 0-1 .19 5 5 0 0 0-1 .53l-.41-.84a4.45 4.45 0 0 1 2.52-.82 2.88 2.88 0 0 1 2 .66 2.44 2.44 0 0 1 .72 1.9v2.27q0 .42.35.43V277H277.23a.85.85 0 0 1-.59-.19.81.81 0 0 1-.26-.49v-.4a2.8 2.8 0 0 1-1 .85 3.05 3.05 0 0 1-1.38.32zm.36-1a2.37 2.37 0 0 0 .91-.17 1.56 1.56 0 0 0 .67-.49.61.61 0 0 0 .25-.46v-.83a4.09 4.09 0 0 0-1.45-.28 2 2 0 0 0-1.16.31.94.94 0 0 0-.45.81 1 1 0 0 0 .35.79 1.27 1.27 0 0 0 .91.35zM278.72 273.83a3.42 3.42 0 0 1 .23-1.25 3.05 3.05 0 0 1 1.68-1.73 3.37 3.37 0 0 1 1.34-.26 3.17 3.17 0 0 1 1.67.43 2.7 2.7 0 0 1 1.05 1.13l-1.28.41a1.65 1.65 0 0 0-1.46-.84 1.75 1.75 0 0 0-.74.16 1.78 1.78 0 0 0-.59.44 2.1 2.1 0 0 0-.4.67 2.42 2.42 0 0 0-.14.85 2.35 2.35 0 0 0 .15.85 2.19 2.19 0 0 0 .41.68 1.88 1.88 0 0 0 .6.45 1.67 1.67 0 0 0 .73.16 1.78 1.78 0 0 0 .48-.07 1.7 1.7 0 0 0 .79-.46 1 1 0 0 0 .22-.34l1.3.38a2.57 2.57 0 0 1-1 1.16 3.23 3.23 0 0 1-1.73.45 3.28 3.28 0 0 1-1.33-.26 3.12 3.12 0 0 1-1-.71 3.24 3.24 0 0 1-.66-1 3.34 3.34 0 0 1-.32-1.3zM288.62 277.09a3.33 3.33 0 0 1-1.33-.26 3.09 3.09 0 0 1-1-.7 3.17 3.17 0 0 1-.66-1 3.34 3.34 0 0 1-.23-1.25 3.39 3.39 0 0 1 .23-1.25 3.22 3.22 0 0 1 .66-1 3.05 3.05 0 0 1 1-.71 3.38 3.38 0 0 1 1.34-.26 3.23 3.23 0 0 1 1.33.26 3.18 3.18 0 0 1 1 .7 3 3 0 0 1 .64 1 3.38 3.38 0 0 1 .22 1.22v.48h-5a2.13 2.13 0 0 0 .2.76 2 2 0 0 0 .42.58 1.82 1.82 0 0 0 .59.38 1.84 1.84 0 0 0 .69.13 2.1 2.1 0 0 0 .52-.07 1.83 1.83 0 0 0 .47-.19 1.68 1.68 0 0 0 .38-.31 1.45 1.45 0 0 0 .26-.4l1.13.32a2.61 2.61 0 0 1-1.07 1.16 3.33 3.33 0 0 1-1.79.41zm1.91-3.73a2.11 2.11 0 0 0-.2-.73 1.88 1.88 0 0 0-.41-.57 1.84 1.84 0 0 0-.59-.37 1.91 1.91 0 0 0-.71-.13 1.88 1.88 0 0 0-1.28.5 1.8 1.8 0 0 0-.41.57 2.2 2.2 0 0 0-.19.73z"/></g></g></svg>